G04 #@! TF.GenerationSoftware,KiCad,Pcbnew,7.0.5-4d25ed1034~172~ubuntu22.04.1*
G04 #@! TF.CreationDate,2023-06-14T16:15:45+03:00*
G04 #@! TF.ProjectId,AgonLight2-HvIO_Rev_A,41676f6e-4c69-4676-9874-322d4876494f,A*
G04 #@! TF.SameCoordinates,Original*
G04 #@! TF.FileFunction,Soldermask,Top*
G04 #@! TF.FilePolarity,Negative*
%FSLAX46Y46*%
G04 Gerber Fmt 4.6, Leading zero omitted, Abs format (unit mm)*
G04 Created by KiCad (PCBNEW 7.0.5-4d25ed1034~172~ubuntu22.04.1) date 2023-06-14 16:15:45*
%MOMM*%
%LPD*%
G01*
G04 APERTURE LIST*
G04 Aperture macros list*
%AMRoundRect*
0 Rectangle with rounded corners*
0 $1 Rounding radius*
0 $2 $3 $4 $5 $6 $7 $8 $9 X,Y pos of 4 corners*
0 Add a 4 corners polygon primitive as box body*
4,1,4,$2,$3,$4,$5,$6,$7,$8,$9,$2,$3,0*
0 Add four circle primitives for the rounded corners*
1,1,$1+$1,$2,$3*
1,1,$1+$1,$4,$5*
1,1,$1+$1,$6,$7*
1,1,$1+$1,$8,$9*
0 Add four rect primitives between the rounded corners*
20,1,$1+$1,$2,$3,$4,$5,0*
20,1,$1+$1,$4,$5,$6,$7,0*
20,1,$1+$1,$6,$7,$8,$9,0*
20,1,$1+$1,$8,$9,$2,$3,0*%
G04 Aperture macros list end*
%ADD10RoundRect,0.050800X0.250000X0.275000X-0.250000X0.275000X-0.250000X-0.275000X0.250000X-0.275000X0*%
%ADD11RoundRect,0.050800X-0.250000X-0.275000X0.250000X-0.275000X0.250000X0.275000X-0.250000X0.275000X0*%
%ADD12C,1.254000*%
%ADD13RoundRect,0.050800X-1.524000X-1.524000X1.524000X-1.524000X1.524000X1.524000X-1.524000X1.524000X0*%
%ADD14C,3.149600*%
%ADD15RoundRect,0.050800X0.400000X0.400000X-0.400000X0.400000X-0.400000X-0.400000X0.400000X-0.400000X0*%
%ADD16RoundRect,0.050800X-0.700000X1.000000X-0.700000X-1.000000X0.700000X-1.000000X0.700000X1.000000X0*%
%ADD17RoundRect,0.050800X-1.000000X-0.850000X1.000000X-0.850000X1.000000X0.850000X-1.000000X0.850000X0*%
%ADD18C,3.401601*%
%ADD19RoundRect,0.050800X-0.889000X-0.762000X0.889000X-0.762000X0.889000X0.762000X-0.889000X0.762000X0*%
%ADD20C,2.101600*%
%ADD21C,1.701600*%
%ADD22C,2.641600*%
%ADD23RoundRect,0.050800X-0.700000X-0.500000X0.700000X-0.500000X0.700000X0.500000X-0.700000X0.500000X0*%
%ADD24C,3.101600*%
%ADD25RoundRect,0.050800X-0.400000X-0.400000X0.400000X-0.400000X0.400000X0.400000X-0.400000X0.400000X0*%
%ADD26C,1.301600*%
%ADD27RoundRect,0.050800X-0.500000X2.125000X-0.500000X-2.125000X0.500000X-2.125000X0.500000X2.125000X0*%
%ADD28RoundRect,0.050800X0.500000X-2.125000X0.500000X2.125000X-0.500000X2.125000X-0.500000X-2.125000X0*%
G04 APERTURE END LIST*
D10*
X68500000Y-102000000D03*
D11*
X69516000Y-102000000D03*
D12*
X56500000Y-101500000D03*
D13*
X102500000Y-165500000D03*
D14*
X107500000Y-165500000D03*
D15*
X64238000Y-117000000D03*
X65762000Y-117000000D03*
D16*
X98810000Y-121000000D03*
X96270000Y-121000000D03*
X93730000Y-121000000D03*
X91190000Y-121000000D03*
X91190000Y-130000000D03*
X93730000Y-130000000D03*
X98810000Y-130000000D03*
D10*
X143002000Y-114427000D03*
D11*
X144018000Y-114427000D03*
D17*
X103500000Y-134055000D03*
X108500000Y-134055000D03*
D10*
X66992000Y-117000000D03*
D11*
X68008000Y-117000000D03*
D18*
X59000000Y-166000000D03*
D19*
X124730000Y-130445000D03*
X127270000Y-130445000D03*
X127270000Y-121555000D03*
X124730000Y-121555000D03*
D20*
X106000000Y-138380000D03*
X106000000Y-153620000D03*
D16*
X75810000Y-121000000D03*
X73270000Y-121000000D03*
X70730000Y-121000000D03*
X68190000Y-121000000D03*
X68190000Y-130000000D03*
X70730000Y-130000000D03*
X75810000Y-130000000D03*
D11*
X144018000Y-116332000D03*
D10*
X143002000Y-116332000D03*
D18*
X151000000Y-104000000D03*
D10*
X137000000Y-117000000D03*
D11*
X138016000Y-117000000D03*
D13*
X138500000Y-165500000D03*
D14*
X143500000Y-165500000D03*
D13*
X66500000Y-165500000D03*
D14*
X71500000Y-165500000D03*
D15*
X134238000Y-117000000D03*
X135762000Y-117000000D03*
D21*
X101000000Y-159000000D03*
X101000000Y-149000000D03*
D20*
X116000000Y-138380000D03*
X116000000Y-153620000D03*
D16*
X87310000Y-121000000D03*
X84770000Y-121000000D03*
X82230000Y-121000000D03*
X79690000Y-121000000D03*
X79690000Y-130000000D03*
X82230000Y-130000000D03*
X87310000Y-130000000D03*
D13*
X84500000Y-165500000D03*
D14*
X89500000Y-165500000D03*
D16*
X64310000Y-121000000D03*
X61770000Y-121000000D03*
X59230000Y-121000000D03*
X56690000Y-121000000D03*
X56690000Y-130000000D03*
X59230000Y-130000000D03*
X64310000Y-130000000D03*
D10*
X143002000Y-120015000D03*
D11*
X144018000Y-120015000D03*
D22*
X150500000Y-126500000D03*
X150500000Y-130000000D03*
X150500000Y-133500000D03*
D10*
X68492000Y-106000000D03*
D11*
X69508000Y-106000000D03*
D17*
X123500000Y-134000000D03*
X128500000Y-134000000D03*
D13*
X120500000Y-165500000D03*
D14*
X125500000Y-165500000D03*
D21*
X131000000Y-159000000D03*
X131000000Y-149000000D03*
D23*
X72107440Y-117949960D03*
X72107440Y-116047500D03*
X69897640Y-117002540D03*
D17*
X133500000Y-134000000D03*
X138500000Y-134000000D03*
D19*
X104730000Y-130445000D03*
X107270000Y-130445000D03*
X107270000Y-121555000D03*
X104730000Y-121555000D03*
D17*
X113500000Y-134000000D03*
X118500000Y-134000000D03*
D18*
X151000000Y-166000000D03*
D23*
X92107440Y-117949960D03*
X92107440Y-116047500D03*
X89897640Y-117002540D03*
D18*
X59000000Y-104000000D03*
D10*
X106992000Y-117000000D03*
D11*
X108008000Y-117000000D03*
D10*
X143002000Y-118110000D03*
D11*
X144018000Y-118110000D03*
D24*
X94000000Y-138300000D03*
X94000000Y-152700000D03*
D21*
X121000000Y-159000000D03*
X121000000Y-149000000D03*
D15*
X124238000Y-117000000D03*
X125762000Y-117000000D03*
D23*
X62107440Y-117949960D03*
X62107440Y-116047500D03*
X59897640Y-117002540D03*
D24*
X83000000Y-138300000D03*
X83000000Y-152700000D03*
X61000000Y-138300000D03*
X61000000Y-152700000D03*
D22*
X150500000Y-114000000D03*
X150500000Y-117500000D03*
X150500000Y-121000000D03*
D12*
X56500000Y-168500000D03*
D25*
X65762000Y-102000000D03*
X64238000Y-102000000D03*
D23*
X82107440Y-117949960D03*
X82107440Y-116047500D03*
X79897640Y-117002540D03*
D15*
X104238000Y-117000000D03*
X105762000Y-117000000D03*
X114238000Y-117000000D03*
X115762000Y-117000000D03*
X94238000Y-117000000D03*
X95762000Y-117000000D03*
D11*
X144018000Y-121793000D03*
D10*
X143002000Y-121793000D03*
D19*
X114730000Y-130445000D03*
X117270000Y-130445000D03*
X117270000Y-121555000D03*
X114730000Y-121555000D03*
D24*
X72000000Y-138300000D03*
X72000000Y-152700000D03*
D15*
X74238000Y-117000000D03*
X75762000Y-117000000D03*
D20*
X136000000Y-138380000D03*
X136000000Y-153620000D03*
X126000000Y-138380000D03*
X126000000Y-153620000D03*
D25*
X65762000Y-106000000D03*
X64238000Y-106000000D03*
D10*
X86992000Y-117000000D03*
D11*
X88008000Y-117000000D03*
D10*
X126992000Y-117000000D03*
D11*
X128008000Y-117000000D03*
D26*
X140550000Y-106000000D03*
X102450000Y-106000000D03*
D27*
X141820000Y-102875000D03*
X141820000Y-109125000D03*
X139280000Y-102875000D03*
X139280000Y-109125000D03*
X136740000Y-102875000D03*
X136740000Y-109125000D03*
X134200000Y-102875000D03*
X134200000Y-109125000D03*
X131660000Y-102875000D03*
X131660000Y-109125000D03*
X129120000Y-102875000D03*
X129120000Y-109125000D03*
X126580000Y-102875000D03*
X126580000Y-109125000D03*
X124040000Y-102875000D03*
X124040000Y-109125000D03*
X121500000Y-102875000D03*
X121500000Y-109125000D03*
X118960000Y-102875000D03*
X118960000Y-109125000D03*
D28*
X116420000Y-102875000D03*
D27*
X116420000Y-109125000D03*
D28*
X113880000Y-102875000D03*
D27*
X113880000Y-109125000D03*
D28*
X111340000Y-102875000D03*
D27*
X111340000Y-109125000D03*
D28*
X108800000Y-102875000D03*
D27*
X108800000Y-109125000D03*
D28*
X106260000Y-102875000D03*
D27*
X106260000Y-109125000D03*
D28*
X103720000Y-102875000D03*
D27*
X103720000Y-109125000D03*
D28*
X101180000Y-102875000D03*
D27*
X101180000Y-109125000D03*
D19*
X134730000Y-130445000D03*
X137270000Y-130445000D03*
X137270000Y-121555000D03*
X134730000Y-121555000D03*
D10*
X76992000Y-117000000D03*
D11*
X78008000Y-117000000D03*
D12*
X153500000Y-168500000D03*
D10*
X143002000Y-112522000D03*
D11*
X144018000Y-112522000D03*
D21*
X111000000Y-159000000D03*
X111000000Y-149000000D03*
D10*
X96992000Y-117000000D03*
D11*
X98008000Y-117000000D03*
D10*
X116992000Y-117000000D03*
D11*
X118008000Y-117000000D03*
D15*
X84238000Y-117000000D03*
X85762000Y-117000000D03*
M02*
