M48
; DRILL file {KiCad 7.0.5-4d25ed1034~172~ubuntu22.04.1} date 14.06.2023 (ср) 16:15:54
; FORMAT={-:-/ absolute / metric / decimal}
; #@! TF.CreationDate,2023-06-14T16:15:54+03:00
; #@! TF.GenerationSoftware,Kicad,Pcbnew,7.0.5-4d25ed1034~172~ubuntu22.04.1
; #@! TF.FileFunction,Plated,1,2,PTH
FMAT,2
METRIC
; #@! TA.AperFunction,Plated,PTH,ViaDrill
T1C0.600
; #@! TA.AperFunction,Plated,PTH,ComponentDrill
T2C1.000
; #@! TA.AperFunction,Plated,PTH,ComponentDrill
T3C1.100
; #@! TA.AperFunction,Plated,PTH,ComponentDrill
T4C1.300
%
G90
G05
T1
X56.134Y-107.315
X56.134Y-108.585
X56.134Y-110.49
X56.134Y-112.395
X56.134Y-114.3
X56.134Y-116.205
X56.134Y-118.11
X57.963Y-120.269
X62.103Y-114.935
X62.23Y-100.838
X64.262Y-103.378
X64.77Y-100.838
X65.659Y-120.269
X67.31Y-100.838
X67.945Y-118.237
X69.469Y-120.269
X69.85Y-100.838
X70.485Y-101.981
X70.485Y-105.918
X72.136Y-114.935
X72.39Y-100.838
X74.93Y-100.838
X77.216Y-120.269
X77.47Y-100.838
X77.978Y-118.237
X80.01Y-100.838
X80.975Y-120.269
X82.169Y-114.935
X82.55Y-100.838
X85.09Y-100.838
X87.63Y-100.838
X88.011Y-118.237
X88.646Y-120.269
X90.17Y-100.838
X92.075Y-114.935
X92.456Y-120.269
X92.71Y-100.838
X93.98Y-149.098
X93.98Y-150.368
X94.742Y-147.828
X95.25Y-100.838
X95.758Y-146.812
X96.774Y-145.796
X97.79Y-100.838
X98.044Y-118.237
X98.425Y-144.145
X99.695Y-107.823
X99.695Y-108.966
X99.695Y-110.109
X99.949Y-101.473
X99.949Y-102.87
X99.949Y-104.267
X100.076Y-120.269
X100.965Y-143.764
X102.438Y-100.838
X102.87Y-143.764
X104.775Y-143.764
X104.978Y-100.838
X106.68Y-143.764
X106.892Y-131.699
X106.892Y-132.715
X106.892Y-133.731
X107.518Y-100.838
X107.908Y-131.699
X107.908Y-132.715
X108.077Y-119.761
X108.585Y-143.764
X108.966Y-131.699
X108.966Y-132.715
X109.093Y-121.793
X110.058Y-100.838
X110.49Y-143.764
X112.395Y-143.764
X112.624Y-100.838
X114.3Y-143.764
X115.138Y-100.838
X116.205Y-143.764
X116.891Y-131.699
X116.891Y-132.715
X116.891Y-133.731
X117.678Y-100.838
X117.907Y-131.699
X117.907Y-132.715
X117.983Y-119.761
X118.11Y-143.764
X118.965Y-131.699
X118.965Y-132.715
X118.999Y-121.793
X120.015Y-143.764
X120.244Y-100.838
X121.92Y-143.764
X122.758Y-100.838
X123.825Y-143.764
X124.04Y-112.536
X125.324Y-100.838
X125.349Y-113.665
X125.73Y-143.764
X126.898Y-131.699
X126.898Y-132.715
X126.898Y-133.731
X127.635Y-143.764
X127.864Y-100.838
X127.914Y-131.699
X127.914Y-132.715
X128.016Y-119.761
X128.972Y-131.699
X128.972Y-132.715
X129.032Y-121.793
X129.54Y-143.764
X130.378Y-100.838
X131.445Y-143.764
X132.918Y-100.838
X133.35Y-143.764
X135.255Y-143.764
X135.484Y-100.838
X136.779Y-105.537
X136.906Y-131.699
X136.906Y-132.715
X136.906Y-133.731
X137.16Y-143.764
X137.795Y-161.798
X137.922Y-102.362
X137.922Y-103.505
X137.922Y-104.521
X137.922Y-105.537
X137.922Y-114.935
X137.922Y-131.699
X137.922Y-132.715
X137.998Y-100.838
X138.016Y-119.761
X138.938Y-105.537
X138.98Y-131.699
X138.98Y-132.715
X139.065Y-121.793
X139.065Y-144.78
X139.065Y-160.401
X139.319Y-118.237
X140.208Y-135.636
X140.538Y-100.838
X140.716Y-113.665
X140.97Y-146.685
X141.097Y-136.525
X141.732Y-149.225
X141.732Y-151.13
X141.732Y-153.035
X141.986Y-119.761
X141.986Y-137.414
X142.113Y-112.522
X142.113Y-114.427
X142.113Y-116.332
X142.113Y-121.793
X142.875Y-138.43
X143.51Y-100.838
X145.034Y-116.332
X145.288Y-163.703
X145.415Y-100.838
X145.415Y-103.505
X145.415Y-106.045
X146.685Y-113.665
X146.939Y-142.24
X147.32Y-100.838
X147.32Y-161.925
X147.447Y-119.761
X147.955Y-143.256
X147.955Y-151.13
X147.955Y-159.385
X150.622Y-108.585
X154.178Y-100.838
X154.178Y-106.68
X154.178Y-109.22
X154.178Y-111.76
X154.178Y-114.3
X154.178Y-116.84
X154.178Y-119.38
X154.178Y-121.92
X154.178Y-124.46
X154.178Y-127.0
X154.178Y-129.54
X154.178Y-132.08
X154.178Y-134.62
T2
X101.0Y-149.0
X101.0Y-159.0
X111.0Y-149.0
X111.0Y-159.0
X121.0Y-149.0
X121.0Y-159.0
X131.0Y-149.0
X131.0Y-159.0
X150.5Y-114.0
X150.5Y-117.5
X150.5Y-121.0
X150.5Y-126.5
X150.5Y-130.0
X150.5Y-133.5
T3
X106.0Y-138.38
X106.0Y-153.62
X116.0Y-138.38
X116.0Y-153.62
X126.0Y-138.38
X126.0Y-153.62
X136.0Y-138.38
X136.0Y-153.62
T4
X61.0Y-138.3
X61.0Y-152.7
X66.5Y-165.5
X71.5Y-165.5
X72.0Y-138.3
X72.0Y-152.7
X83.0Y-138.3
X83.0Y-152.7
X84.5Y-165.5
X89.5Y-165.5
X94.0Y-138.3
X94.0Y-152.7
X102.5Y-165.5
X107.5Y-165.5
X120.5Y-165.5
X125.5Y-165.5
X138.5Y-165.5
X143.5Y-165.5
T0
M30
