G04 #@! TF.GenerationSoftware,KiCad,Pcbnew,7.0.5-4d25ed1034~172~ubuntu22.04.1*
G04 #@! TF.CreationDate,2023-06-14T16:15:44+03:00*
G04 #@! TF.ProjectId,AgonLight2-HvIO_Rev_A,41676f6e-4c69-4676-9874-322d4876494f,A*
G04 #@! TF.SameCoordinates,Original*
G04 #@! TF.FileFunction,Copper,L2,Bot*
G04 #@! TF.FilePolarity,Positive*
%FSLAX46Y46*%
G04 Gerber Fmt 4.6, Leading zero omitted, Abs format (unit mm)*
G04 Created by KiCad (PCBNEW 7.0.5-4d25ed1034~172~ubuntu22.04.1) date 2023-06-14 16:15:44*
%MOMM*%
%LPD*%
G01*
G04 APERTURE LIST*
G04 #@! TA.AperFunction,ComponentPad*
%ADD10R,3.048000X3.048000*%
G04 #@! TD*
G04 #@! TA.AperFunction,ComponentPad*
%ADD11C,3.048000*%
G04 #@! TD*
G04 #@! TA.AperFunction,ComponentPad*
%ADD12C,2.000000*%
G04 #@! TD*
G04 #@! TA.AperFunction,ComponentPad*
%ADD13C,1.600000*%
G04 #@! TD*
G04 #@! TA.AperFunction,ComponentPad*
%ADD14C,2.540000*%
G04 #@! TD*
G04 #@! TA.AperFunction,ComponentPad*
%ADD15C,3.000000*%
G04 #@! TD*
G04 #@! TA.AperFunction,ViaPad*
%ADD16C,1.000000*%
G04 #@! TD*
G04 #@! TA.AperFunction,Conductor*
%ADD17C,1.270000*%
G04 #@! TD*
G04 #@! TA.AperFunction,Conductor*
%ADD18C,2.032000*%
G04 #@! TD*
G04 #@! TA.AperFunction,Conductor*
%ADD19C,1.016000*%
G04 #@! TD*
G04 #@! TA.AperFunction,Conductor*
%ADD20C,0.762000*%
G04 #@! TD*
G04 #@! TA.AperFunction,Conductor*
%ADD21C,5.080000*%
G04 #@! TD*
G04 #@! TA.AperFunction,Conductor*
%ADD22C,4.826000*%
G04 #@! TD*
G04 #@! TA.AperFunction,Conductor*
%ADD23C,4.318000*%
G04 #@! TD*
G04 #@! TA.AperFunction,Conductor*
%ADD24C,3.048000*%
G04 #@! TD*
G04 #@! TA.AperFunction,Conductor*
%ADD25C,2.540000*%
G04 #@! TD*
G04 #@! TA.AperFunction,Conductor*
%ADD26C,1.778000*%
G04 #@! TD*
G04 APERTURE END LIST*
D10*
X102500000Y-165500000D03*
D11*
X107500000Y-165500000D03*
D12*
X106000000Y-138380000D03*
X106000000Y-153620000D03*
D10*
X138500000Y-165500000D03*
D11*
X143500000Y-165500000D03*
D10*
X66500000Y-165500000D03*
D11*
X71500000Y-165500000D03*
D13*
X101000000Y-159000000D03*
X101000000Y-149000000D03*
D12*
X116000000Y-138380000D03*
X116000000Y-153620000D03*
D10*
X84500000Y-165500000D03*
D11*
X89500000Y-165500000D03*
D14*
X150500000Y-126500000D03*
X150500000Y-130000000D03*
X150500000Y-133500000D03*
D10*
X120500000Y-165500000D03*
D11*
X125500000Y-165500000D03*
D13*
X131000000Y-159000000D03*
X131000000Y-149000000D03*
D15*
X94000000Y-138300000D03*
X94000000Y-152700000D03*
D13*
X121000000Y-159000000D03*
X121000000Y-149000000D03*
D15*
X83000000Y-138300000D03*
X83000000Y-152700000D03*
X61000000Y-138300000D03*
X61000000Y-152700000D03*
D14*
X150500000Y-114000000D03*
X150500000Y-117500000D03*
X150500000Y-121000000D03*
D15*
X72000000Y-138300000D03*
X72000000Y-152700000D03*
D12*
X136000000Y-138380000D03*
X136000000Y-153620000D03*
X126000000Y-138380000D03*
X126000000Y-153620000D03*
D13*
X111000000Y-159000000D03*
X111000000Y-149000000D03*
D16*
X56134000Y-114300000D03*
X99949000Y-102870000D03*
X102438200Y-100838000D03*
X64770000Y-100838000D03*
X95250000Y-100838000D03*
X77470000Y-100838000D03*
X117678200Y-100838000D03*
X70485000Y-105918000D03*
X90170000Y-100838000D03*
X145415000Y-100838000D03*
X154178000Y-134620000D03*
X109093000Y-121793000D03*
X154178000Y-124460000D03*
X137922000Y-105537000D03*
X92710000Y-100838000D03*
X74930000Y-100838000D03*
X122758200Y-100838000D03*
X70485000Y-101981000D03*
X154178000Y-109220000D03*
X56134000Y-107315000D03*
X142113000Y-116332000D03*
X154178000Y-116840000D03*
X85090000Y-100838000D03*
X72136000Y-114935000D03*
X138938000Y-105537000D03*
X154178000Y-121920000D03*
X145415000Y-106045000D03*
X69850000Y-100838000D03*
X82169000Y-114935000D03*
X56134000Y-118110000D03*
X87630000Y-100838000D03*
X56134000Y-108585000D03*
X139065000Y-121793000D03*
X56134000Y-112395000D03*
X97790000Y-100838000D03*
X137922000Y-104521000D03*
X67310000Y-100838000D03*
X154178000Y-132080000D03*
X118999000Y-121793000D03*
X146685000Y-113665000D03*
X56134000Y-110490000D03*
X154178000Y-119380000D03*
X137922000Y-102362000D03*
X154178000Y-114300000D03*
X154178000Y-100838000D03*
X137998200Y-100838000D03*
X136779000Y-105537000D03*
X107518200Y-100838000D03*
X120243600Y-100838000D03*
X125323600Y-100838000D03*
X72390000Y-100838000D03*
X110058200Y-100838000D03*
X150622000Y-108585000D03*
X140538200Y-100838000D03*
X145415000Y-103505000D03*
X115138200Y-100838000D03*
X130378200Y-100838000D03*
X56134000Y-116205000D03*
X99949000Y-104267000D03*
X137922000Y-103505000D03*
X154178000Y-111760000D03*
X143510000Y-100838000D03*
X112623600Y-100838000D03*
X80010000Y-100838000D03*
X127863600Y-100838000D03*
X154178000Y-129540000D03*
X99949000Y-101473000D03*
X135483600Y-100838000D03*
X82550000Y-100838000D03*
X154178000Y-106680000D03*
X92075000Y-114935000D03*
X132918200Y-100838000D03*
X62103000Y-114935000D03*
X142113000Y-121793000D03*
X104978200Y-100838000D03*
X129032000Y-121793000D03*
X147320000Y-100838000D03*
X62230000Y-100838000D03*
X154178000Y-127000000D03*
X88011000Y-118237000D03*
X139319000Y-118237000D03*
X77978000Y-118237000D03*
X64262000Y-103378000D03*
X98044000Y-118237000D03*
X67945000Y-118237000D03*
X142113000Y-114427000D03*
X141986000Y-119761000D03*
X99695000Y-108966000D03*
X128016000Y-119761000D03*
X108077000Y-119761000D03*
X99695000Y-110109000D03*
X147447008Y-119761008D03*
X117983000Y-119761000D03*
X137922000Y-114935000D03*
X138016000Y-119761000D03*
X99695000Y-107823000D03*
X140716000Y-113665000D03*
X125348990Y-113665000D03*
X124040000Y-112536034D03*
X142113000Y-112522000D03*
X133350000Y-143764000D03*
X137160000Y-143764000D03*
X127635000Y-143764000D03*
X141732000Y-153035000D03*
X121920000Y-143764000D03*
X112395000Y-143764000D03*
X137795000Y-161798000D03*
X110490000Y-143764000D03*
X131445000Y-143764000D03*
X120015000Y-143764000D03*
X93980000Y-149098000D03*
X118110000Y-143764000D03*
X104775000Y-143764000D03*
X95758000Y-146812000D03*
X135255000Y-143764000D03*
X141732000Y-151130000D03*
X139065000Y-144780000D03*
X100965000Y-143764000D03*
X114300000Y-143764000D03*
X96774000Y-145796000D03*
X140970000Y-146685000D03*
X116205000Y-143764000D03*
X125730000Y-143764000D03*
X94742000Y-147828000D03*
X102870000Y-143764000D03*
X108585000Y-143764000D03*
X123825000Y-143764000D03*
X106680000Y-143764000D03*
X139065000Y-160401000D03*
X129540000Y-143764000D03*
X93980000Y-150368000D03*
X141732000Y-149225000D03*
X98425000Y-144145000D03*
X92456000Y-120269000D03*
X100076000Y-120269000D03*
X137922000Y-131699000D03*
X140208000Y-135636000D03*
X141097000Y-136525000D03*
X107908000Y-132715000D03*
X107908000Y-131699000D03*
X138980000Y-131699000D03*
X126898400Y-131699000D03*
X117906800Y-132715000D03*
X128972400Y-131699000D03*
X147955000Y-143256000D03*
X116890800Y-132715000D03*
X127914400Y-131699000D03*
X141986000Y-137414000D03*
X136906000Y-132715000D03*
X106892000Y-131699000D03*
X142875000Y-138430000D03*
X117906800Y-131699000D03*
X147320000Y-161925000D03*
X116890800Y-131699000D03*
X145288000Y-163703000D03*
X137922000Y-132715000D03*
X108966000Y-132715000D03*
X118964800Y-132715000D03*
X136906000Y-133731000D03*
X106892000Y-133731000D03*
X106892000Y-132715000D03*
X108966000Y-131699000D03*
X138980000Y-132715000D03*
X127914400Y-132715000D03*
X126898400Y-133731000D03*
X128972400Y-132715000D03*
X136906000Y-131699000D03*
X126898400Y-132715000D03*
X146939000Y-142240000D03*
X147955000Y-159385000D03*
X147955000Y-151130000D03*
X118964800Y-131699000D03*
X116890800Y-133731000D03*
X88646000Y-120269000D03*
X80975200Y-120269000D03*
X77216000Y-120269000D03*
X69469000Y-120269000D03*
X65659000Y-120269000D03*
X57962800Y-120269000D03*
X145034000Y-116332000D03*
D17*
X142113000Y-121793000D02*
X149707000Y-121793000D01*
X72136000Y-107569000D02*
X70485000Y-105918000D01*
X150622000Y-108585000D02*
X140957394Y-108585000D01*
X93472000Y-116332000D02*
X92075000Y-114935000D01*
X72136000Y-113030000D02*
X72136000Y-107569000D01*
X70231000Y-114935000D02*
X69850000Y-114935000D01*
X92075000Y-114935000D02*
X82169000Y-114935000D01*
X143891000Y-118110000D02*
X147955000Y-118110000D01*
X142113000Y-121793000D02*
X139065000Y-121793000D01*
X74295000Y-114935000D02*
X72136000Y-114935000D01*
X138938000Y-106565606D02*
X138938000Y-106553000D01*
X149707000Y-121793000D02*
X150500000Y-121000000D01*
X56642000Y-121793000D02*
X56134000Y-121285000D01*
X72136000Y-113030000D02*
X74041000Y-114935000D01*
X142113000Y-116332000D02*
X93472000Y-116332000D01*
X69850000Y-114935000D02*
X62103000Y-114935000D01*
X129032000Y-121793000D02*
X118999000Y-121793000D01*
X72136000Y-114935000D02*
X69850000Y-114935000D01*
X142113000Y-116332000D02*
X143891000Y-118110000D01*
X138938000Y-106553000D02*
X137922000Y-105537000D01*
X118999000Y-121793000D02*
X109093000Y-121793000D01*
X150500000Y-120655000D02*
X150500000Y-121000000D01*
X139065000Y-121793000D02*
X129032000Y-121793000D01*
X138938000Y-106565606D02*
X138938000Y-105537000D01*
X74041000Y-114935000D02*
X74295000Y-114935000D01*
X72136000Y-113030000D02*
X70231000Y-114935000D01*
X137922000Y-105537000D02*
X138938000Y-105537000D01*
X109093000Y-121793000D02*
X56642000Y-121793000D01*
X140957394Y-108585000D02*
X138938000Y-106565606D01*
X72136000Y-114935000D02*
X72136000Y-113030000D01*
X147955000Y-118110000D02*
X150500000Y-120655000D01*
X82169000Y-114935000D02*
X74295000Y-114935000D01*
X56134000Y-121285000D02*
X56134000Y-107315000D01*
X139319000Y-118237000D02*
X98044000Y-118237000D01*
X67945000Y-118237000D02*
X61214000Y-118237000D01*
X88011000Y-118237000D02*
X77978000Y-118237000D01*
X59944000Y-116967000D02*
X59944000Y-111760000D01*
X64262000Y-107442000D02*
X64262000Y-103378000D01*
X98044000Y-118237000D02*
X88011000Y-118237000D01*
X61214000Y-118237000D02*
X59944000Y-116967000D01*
X59944000Y-111760000D02*
X64262000Y-107442000D01*
X77978000Y-118237000D02*
X67945000Y-118237000D01*
D18*
X124079000Y-110617000D02*
X122936000Y-110617000D01*
D17*
X101219000Y-110109000D02*
X99695000Y-110109000D01*
D18*
X149606000Y-110617000D02*
X144780000Y-110617000D01*
D17*
X141986000Y-119761000D02*
X147447000Y-119761000D01*
D18*
X122936000Y-110617000D02*
X121158000Y-110617000D01*
D19*
X124079000Y-114935000D02*
X122778000Y-113634000D01*
D18*
X143383000Y-110617000D02*
X142113000Y-110617000D01*
D17*
X99695000Y-108966000D02*
X100838000Y-110109000D01*
X117983000Y-119761000D02*
X108077000Y-119761000D01*
X102616000Y-110617000D02*
X102108000Y-110109000D01*
D19*
X143383000Y-113157000D02*
X143383000Y-112014000D01*
X122778000Y-110775000D02*
X122936000Y-110617000D01*
X142113000Y-114427000D02*
X141605000Y-114935000D01*
X121381000Y-110617000D02*
X121158000Y-110617000D01*
D18*
X102616000Y-110617000D02*
X100203000Y-110617000D01*
D19*
X137922000Y-114935000D02*
X124079000Y-114935000D01*
D17*
X102108000Y-110109000D02*
X101219000Y-110109000D01*
X101981000Y-110109000D02*
X102108000Y-110109000D01*
X147447000Y-119761000D02*
X147447008Y-119761008D01*
X138016000Y-119761000D02*
X128016000Y-119761000D01*
D19*
X141605000Y-114935000D02*
X137922000Y-114935000D01*
D18*
X99695000Y-107823000D02*
X99695000Y-110109000D01*
X144780000Y-110617000D02*
X143383000Y-110617000D01*
D19*
X122778000Y-113634000D02*
X122778000Y-112014000D01*
X122778000Y-111918000D02*
X124079000Y-110617000D01*
X122778000Y-112014000D02*
X121381000Y-110617000D01*
X143383000Y-112014000D02*
X143383000Y-111887000D01*
D17*
X141986000Y-119761000D02*
X138016000Y-119761000D01*
D19*
X143383000Y-112014000D02*
X143383000Y-110617000D01*
D17*
X128016000Y-119761000D02*
X117983000Y-119761000D01*
D19*
X143383000Y-112014000D02*
X144780000Y-110617000D01*
X142113000Y-114427000D02*
X143383000Y-113157000D01*
X122778000Y-112014000D02*
X122778000Y-110775000D01*
D17*
X100838000Y-110109000D02*
X101219000Y-110109000D01*
D19*
X143383000Y-111887000D02*
X142113000Y-110617000D01*
D18*
X100203000Y-110617000D02*
X99695000Y-110109000D01*
X121158000Y-110617000D02*
X102616000Y-110617000D01*
D19*
X122778000Y-112014000D02*
X122778000Y-111918000D01*
D18*
X142113000Y-110617000D02*
X124079000Y-110617000D01*
X150500000Y-111511000D02*
X149606000Y-110617000D01*
X99695000Y-107823000D02*
X101981000Y-110109000D01*
X150500000Y-114000000D02*
X150500000Y-111511000D01*
D20*
X140716000Y-113665000D02*
X125348990Y-113665000D01*
X142113000Y-112522000D02*
X124054034Y-112522000D01*
X124054034Y-112522000D02*
X124040000Y-112536034D01*
D21*
X61000000Y-149947000D02*
X63119000Y-147828000D01*
D18*
X138500000Y-165500000D02*
X137658000Y-165500000D01*
D22*
X138303000Y-143764000D02*
X141732000Y-147193000D01*
X98872190Y-143764000D02*
X94808190Y-147828000D01*
X94000000Y-148762054D02*
X94000000Y-148636190D01*
X94808190Y-147828000D02*
X87249000Y-147828000D01*
X94000000Y-149118000D02*
X93980000Y-149098000D01*
D21*
X72000000Y-152700000D02*
X83000000Y-152700000D01*
D23*
X94742000Y-147828000D02*
X94742000Y-148336000D01*
D21*
X61000000Y-152700000D02*
X72000000Y-152700000D01*
X61000000Y-152700000D02*
X61000000Y-149947000D01*
D22*
X94000000Y-150348000D02*
X94000000Y-149118000D01*
X94000000Y-149078000D02*
X94000000Y-148762054D01*
X137658000Y-161808000D02*
X137658000Y-165500000D01*
X94000000Y-148762054D02*
X90062054Y-152700000D01*
X141732000Y-147193000D02*
X141732000Y-157734000D01*
X94000000Y-150388000D02*
X93980000Y-150368000D01*
D21*
X63119000Y-147828000D02*
X87249000Y-147828000D01*
D22*
X94000000Y-152700000D02*
X94000000Y-150388000D01*
D21*
X83000000Y-152700000D02*
X94000000Y-152700000D01*
X87249000Y-147828000D02*
X94742000Y-147828000D01*
D22*
X93980000Y-150368000D02*
X94000000Y-150348000D01*
X98872190Y-143764000D02*
X138303000Y-143764000D01*
X93980000Y-149098000D02*
X94000000Y-149078000D01*
X141732000Y-157734000D02*
X137658000Y-161808000D01*
D23*
X94742000Y-148336000D02*
X93980000Y-149098000D01*
D22*
X94000000Y-148636190D02*
X98872190Y-143764000D01*
X90062054Y-152700000D02*
X83000000Y-152700000D01*
D17*
X100076000Y-120269000D02*
X92456000Y-120269000D01*
D24*
X106892000Y-132715000D02*
X106892000Y-133731000D01*
X106892000Y-133731000D02*
X116890800Y-133731000D01*
X137922000Y-132715000D02*
X137922000Y-133350000D01*
X138303000Y-133731000D02*
X139128500Y-134556500D01*
X138980000Y-134408000D02*
X140208000Y-135636000D01*
X137922000Y-132715000D02*
X127914400Y-132715000D01*
X106892000Y-132715000D02*
X106892000Y-131699000D01*
X136271000Y-131699000D02*
X139128500Y-134556500D01*
X147955000Y-143383000D02*
X140208000Y-135636000D01*
X138980000Y-131699000D02*
X138980000Y-134408000D01*
X147955000Y-161045000D02*
X147955000Y-143383000D01*
X127914400Y-132715000D02*
X117906800Y-132715000D01*
X116890800Y-133731000D02*
X138303000Y-133731000D01*
X143500000Y-165500000D02*
X147955000Y-161045000D01*
X139128500Y-134556500D02*
X140208000Y-135636000D01*
X107908000Y-132715000D02*
X106892000Y-132715000D01*
X137922000Y-133350000D02*
X139128500Y-134556500D01*
X106892000Y-131699000D02*
X136271000Y-131699000D01*
X136271000Y-131699000D02*
X138980000Y-131699000D01*
X117906800Y-132715000D02*
X107908000Y-132715000D01*
D17*
X88646000Y-120269000D02*
X80975200Y-120269000D01*
X77216000Y-120269000D02*
X69469000Y-120269000D01*
X65659000Y-120269000D02*
X57962800Y-120269000D01*
D25*
X125500000Y-165500000D02*
X125500000Y-162409000D01*
X125500000Y-162409000D02*
X128909000Y-159000000D01*
X128909000Y-159000000D02*
X131000000Y-159000000D01*
X120500000Y-165500000D02*
X120500000Y-159500000D01*
X120500000Y-159500000D02*
X121000000Y-159000000D01*
X102500000Y-165500000D02*
X102500000Y-160500000D01*
X102500000Y-160500000D02*
X101000000Y-159000000D01*
X107500000Y-162500000D02*
X111000000Y-159000000D01*
X107500000Y-165500000D02*
X107500000Y-162500000D01*
D26*
X135620000Y-153620000D02*
X131000000Y-149000000D01*
X136000000Y-153620000D02*
X135620000Y-153620000D01*
X126000000Y-153620000D02*
X125620000Y-153620000D01*
X125620000Y-153620000D02*
X121000000Y-149000000D01*
X115620000Y-153620000D02*
X111000000Y-149000000D01*
X116000000Y-153620000D02*
X115620000Y-153620000D01*
X106000000Y-153620000D02*
X105620000Y-153620000D01*
X105620000Y-153620000D02*
X101000000Y-149000000D01*
D19*
X149332000Y-116332000D02*
X150500000Y-117500000D01*
X145034000Y-116332000D02*
X149332000Y-116332000D01*
G04 #@! TA.AperFunction,Conductor*
G36*
X154704031Y-100273713D02*
G01*
X154740576Y-100324013D01*
X154745500Y-100355100D01*
X154745500Y-135154400D01*
X154726287Y-135213531D01*
X154675987Y-135250076D01*
X154644900Y-135255000D01*
X151806670Y-135255000D01*
X151747539Y-135235787D01*
X151735535Y-135225535D01*
X151360915Y-134850915D01*
X150510000Y-134000000D01*
X150535763Y-134000000D01*
X150642315Y-133984680D01*
X150773100Y-133924952D01*
X150881761Y-133830798D01*
X150959493Y-133709844D01*
X151000000Y-133571889D01*
X151000000Y-133500000D01*
X151218420Y-133500000D01*
X151876838Y-134158418D01*
X151953893Y-133972396D01*
X152009891Y-133739146D01*
X152009892Y-133739140D01*
X152028712Y-133500000D01*
X152009892Y-133260859D01*
X152009891Y-133260853D01*
X151953893Y-133027603D01*
X151876839Y-132841579D01*
X151218420Y-133499999D01*
X151218420Y-133500000D01*
X151000000Y-133500000D01*
X151000000Y-133428111D01*
X150959493Y-133290156D01*
X150881761Y-133169202D01*
X150773100Y-133075048D01*
X150642315Y-133015320D01*
X150535763Y-133000000D01*
X150464237Y-133000000D01*
X150357685Y-133015320D01*
X150226900Y-133075048D01*
X150118239Y-133169202D01*
X150040507Y-133290156D01*
X150000000Y-133428111D01*
X150000000Y-133490000D01*
X149895789Y-133385789D01*
X150500000Y-132781580D01*
X151158418Y-132123160D01*
X151157033Y-132116196D01*
X151164340Y-132054453D01*
X151184560Y-132025439D01*
X152400000Y-130810000D01*
X152400000Y-125730000D01*
X149225000Y-122555000D01*
X149224999Y-122554999D01*
X149225000Y-122554999D01*
X55355043Y-122502157D01*
X55295923Y-122482911D01*
X55259406Y-122432590D01*
X55254500Y-122401557D01*
X55254500Y-122376839D01*
X149841579Y-122376839D01*
X150027603Y-122453893D01*
X150260853Y-122509891D01*
X150260859Y-122509892D01*
X150500000Y-122528712D01*
X150739140Y-122509892D01*
X150739146Y-122509891D01*
X150972396Y-122453893D01*
X151158418Y-122376838D01*
X150500000Y-121718420D01*
X149841579Y-122376839D01*
X55254500Y-122376839D01*
X55254500Y-120362489D01*
X57073300Y-120362489D01*
X57105784Y-120515320D01*
X57112175Y-120545385D01*
X57188227Y-120716200D01*
X57188228Y-120716202D01*
X57188229Y-120716203D01*
X57298133Y-120867473D01*
X57298137Y-120867477D01*
X57437079Y-120992580D01*
X57437085Y-120992585D01*
X57599015Y-121086075D01*
X57776844Y-121143855D01*
X57776843Y-121143855D01*
X57788944Y-121145126D01*
X57916180Y-121158500D01*
X57916184Y-121158500D01*
X65705616Y-121158500D01*
X65705620Y-121158500D01*
X65844956Y-121143855D01*
X66022785Y-121086075D01*
X66184715Y-120992585D01*
X66242612Y-120940453D01*
X66323662Y-120867477D01*
X66323666Y-120867473D01*
X66323666Y-120867472D01*
X66323669Y-120867470D01*
X66433573Y-120716200D01*
X66509625Y-120545385D01*
X66548500Y-120362490D01*
X66548500Y-120362489D01*
X68579500Y-120362489D01*
X68611984Y-120515320D01*
X68618375Y-120545385D01*
X68694427Y-120716200D01*
X68694428Y-120716202D01*
X68694429Y-120716203D01*
X68804333Y-120867473D01*
X68804337Y-120867477D01*
X68943279Y-120992580D01*
X68943285Y-120992585D01*
X69105215Y-121086075D01*
X69283044Y-121143855D01*
X69283043Y-121143855D01*
X69295144Y-121145126D01*
X69422380Y-121158500D01*
X69422384Y-121158500D01*
X77262616Y-121158500D01*
X77262620Y-121158500D01*
X77401956Y-121143855D01*
X77579785Y-121086075D01*
X77741715Y-120992585D01*
X77799612Y-120940453D01*
X77880662Y-120867477D01*
X77880666Y-120867473D01*
X77880666Y-120867472D01*
X77880669Y-120867470D01*
X77990573Y-120716200D01*
X78066625Y-120545385D01*
X78105500Y-120362490D01*
X78105500Y-120362489D01*
X80085700Y-120362489D01*
X80118184Y-120515320D01*
X80124575Y-120545385D01*
X80200627Y-120716200D01*
X80200628Y-120716202D01*
X80200629Y-120716203D01*
X80310533Y-120867473D01*
X80310537Y-120867477D01*
X80449479Y-120992580D01*
X80449485Y-120992585D01*
X80611415Y-121086075D01*
X80789244Y-121143855D01*
X80789243Y-121143855D01*
X80801344Y-121145126D01*
X80928580Y-121158500D01*
X80928584Y-121158500D01*
X88692616Y-121158500D01*
X88692620Y-121158500D01*
X88831956Y-121143855D01*
X89009785Y-121086075D01*
X89171715Y-120992585D01*
X89229612Y-120940453D01*
X89310662Y-120867477D01*
X89310666Y-120867473D01*
X89310666Y-120867472D01*
X89310669Y-120867470D01*
X89420573Y-120716200D01*
X89496625Y-120545385D01*
X89535500Y-120362490D01*
X89535500Y-120362489D01*
X91566500Y-120362489D01*
X91598984Y-120515320D01*
X91605375Y-120545385D01*
X91681427Y-120716200D01*
X91681428Y-120716202D01*
X91681429Y-120716203D01*
X91791333Y-120867473D01*
X91791337Y-120867477D01*
X91930279Y-120992580D01*
X91930285Y-120992585D01*
X92092215Y-121086075D01*
X92270044Y-121143855D01*
X92270043Y-121143855D01*
X92282144Y-121145126D01*
X92409380Y-121158500D01*
X92409384Y-121158500D01*
X100122616Y-121158500D01*
X100122620Y-121158500D01*
X100261956Y-121143855D01*
X100439785Y-121086075D01*
X100588872Y-121000000D01*
X148971287Y-121000000D01*
X148990107Y-121239140D01*
X148990108Y-121239146D01*
X149046106Y-121472396D01*
X149123159Y-121658418D01*
X149709689Y-121071889D01*
X150000000Y-121071889D01*
X150040507Y-121209844D01*
X150118239Y-121330798D01*
X150226900Y-121424952D01*
X150357685Y-121484680D01*
X150464237Y-121500000D01*
X150535763Y-121500000D01*
X150642315Y-121484680D01*
X150773100Y-121424952D01*
X150881761Y-121330798D01*
X150959493Y-121209844D01*
X151000000Y-121071889D01*
X151000000Y-120999999D01*
X151218419Y-120999999D01*
X151876839Y-121658419D01*
X151953893Y-121472396D01*
X152009891Y-121239146D01*
X152009892Y-121239140D01*
X152028712Y-120999999D01*
X152009892Y-120760859D01*
X152009891Y-120760853D01*
X151953893Y-120527603D01*
X151876839Y-120341579D01*
X151218419Y-120999999D01*
X151000000Y-120999999D01*
X151000000Y-120928111D01*
X150959493Y-120790156D01*
X150881761Y-120669202D01*
X150773100Y-120575048D01*
X150642315Y-120515320D01*
X150535763Y-120500000D01*
X150464237Y-120500000D01*
X150357685Y-120515320D01*
X150226900Y-120575048D01*
X150118239Y-120669202D01*
X150040507Y-120790156D01*
X150000000Y-120928111D01*
X150000000Y-121071889D01*
X149709689Y-121071889D01*
X149781579Y-120999999D01*
X149123159Y-120341580D01*
X149046106Y-120527603D01*
X148990108Y-120760853D01*
X148990107Y-120760859D01*
X148971287Y-121000000D01*
X100588872Y-121000000D01*
X100601715Y-120992585D01*
X100659612Y-120940453D01*
X100740662Y-120867477D01*
X100740666Y-120867473D01*
X100740666Y-120867472D01*
X100740669Y-120867470D01*
X100850573Y-120716200D01*
X100926625Y-120545385D01*
X100965500Y-120362490D01*
X100965500Y-120175510D01*
X100926625Y-119992615D01*
X100850573Y-119821800D01*
X100740669Y-119670530D01*
X100740668Y-119670529D01*
X100740666Y-119670526D01*
X100740662Y-119670522D01*
X100601720Y-119545419D01*
X100601714Y-119545414D01*
X100439785Y-119451925D01*
X100439782Y-119451924D01*
X100404564Y-119440481D01*
X100261956Y-119394145D01*
X100261954Y-119394144D01*
X100261956Y-119394144D01*
X100146820Y-119382043D01*
X100122620Y-119379500D01*
X92409380Y-119379500D01*
X92394736Y-119381039D01*
X92270045Y-119394144D01*
X92092217Y-119451924D01*
X92092214Y-119451925D01*
X91930285Y-119545414D01*
X91930279Y-119545419D01*
X91791337Y-119670522D01*
X91791333Y-119670526D01*
X91681429Y-119821796D01*
X91681427Y-119821799D01*
X91681427Y-119821800D01*
X91605429Y-119992495D01*
X91605374Y-119992618D01*
X91566500Y-120175510D01*
X91566500Y-120362489D01*
X89535500Y-120362489D01*
X89535500Y-120175510D01*
X89496625Y-119992615D01*
X89420573Y-119821800D01*
X89310669Y-119670530D01*
X89310668Y-119670529D01*
X89310666Y-119670526D01*
X89310662Y-119670522D01*
X89171720Y-119545419D01*
X89171714Y-119545414D01*
X89009785Y-119451925D01*
X89009782Y-119451924D01*
X88974564Y-119440481D01*
X88831956Y-119394145D01*
X88831954Y-119394144D01*
X88831956Y-119394144D01*
X88716820Y-119382043D01*
X88692620Y-119379500D01*
X80928580Y-119379500D01*
X80913935Y-119381039D01*
X80789245Y-119394144D01*
X80611417Y-119451924D01*
X80611414Y-119451925D01*
X80449485Y-119545414D01*
X80449479Y-119545419D01*
X80310537Y-119670522D01*
X80310533Y-119670526D01*
X80200629Y-119821796D01*
X80200627Y-119821799D01*
X80200627Y-119821800D01*
X80124629Y-119992495D01*
X80124574Y-119992618D01*
X80085700Y-120175510D01*
X80085700Y-120362489D01*
X78105500Y-120362489D01*
X78105500Y-120175510D01*
X78066625Y-119992615D01*
X77990573Y-119821800D01*
X77880669Y-119670530D01*
X77880668Y-119670529D01*
X77880666Y-119670526D01*
X77880662Y-119670522D01*
X77741720Y-119545419D01*
X77741714Y-119545414D01*
X77579785Y-119451925D01*
X77579782Y-119451924D01*
X77544564Y-119440481D01*
X77401956Y-119394145D01*
X77401954Y-119394144D01*
X77401956Y-119394144D01*
X77286820Y-119382043D01*
X77262620Y-119379500D01*
X69422380Y-119379500D01*
X69407735Y-119381039D01*
X69283045Y-119394144D01*
X69105217Y-119451924D01*
X69105214Y-119451925D01*
X68943285Y-119545414D01*
X68943279Y-119545419D01*
X68804337Y-119670522D01*
X68804333Y-119670526D01*
X68694429Y-119821796D01*
X68694427Y-119821799D01*
X68694427Y-119821800D01*
X68618429Y-119992495D01*
X68618374Y-119992618D01*
X68579500Y-120175510D01*
X68579500Y-120362489D01*
X66548500Y-120362489D01*
X66548500Y-120175510D01*
X66509625Y-119992615D01*
X66433573Y-119821800D01*
X66323669Y-119670530D01*
X66323668Y-119670529D01*
X66323666Y-119670526D01*
X66323662Y-119670522D01*
X66184720Y-119545419D01*
X66184714Y-119545414D01*
X66022785Y-119451925D01*
X66022782Y-119451924D01*
X65987564Y-119440481D01*
X65844956Y-119394145D01*
X65844954Y-119394144D01*
X65844956Y-119394144D01*
X65729820Y-119382043D01*
X65705620Y-119379500D01*
X57916180Y-119379500D01*
X57901536Y-119381039D01*
X57776845Y-119394144D01*
X57599017Y-119451924D01*
X57599014Y-119451925D01*
X57437085Y-119545414D01*
X57437079Y-119545419D01*
X57298137Y-119670522D01*
X57298133Y-119670526D01*
X57188229Y-119821796D01*
X57188227Y-119821799D01*
X57188227Y-119821800D01*
X57112229Y-119992495D01*
X57112174Y-119992618D01*
X57073300Y-120175510D01*
X57073300Y-120362489D01*
X55254500Y-120362489D01*
X55254500Y-116920190D01*
X59050826Y-116920190D01*
X59054431Y-116988981D01*
X59054500Y-116991614D01*
X59054500Y-117013630D01*
X59056799Y-117035503D01*
X59057005Y-117038125D01*
X59059960Y-117094499D01*
X59060611Y-117106915D01*
X59062432Y-117113713D01*
X59064640Y-117121951D01*
X59067517Y-117137471D01*
X59069144Y-117152952D01*
X59090426Y-117218456D01*
X59091174Y-117220979D01*
X59109006Y-117287523D01*
X59109005Y-117287523D01*
X59116073Y-117301394D01*
X59122113Y-117315976D01*
X59126923Y-117330781D01*
X59126925Y-117330785D01*
X59136575Y-117347500D01*
X59161369Y-117390443D01*
X59162613Y-117392734D01*
X59182151Y-117431080D01*
X59193891Y-117454122D01*
X59203688Y-117466220D01*
X59212630Y-117479231D01*
X59220415Y-117492716D01*
X59220418Y-117492719D01*
X59266503Y-117543902D01*
X59268209Y-117545898D01*
X59282059Y-117563002D01*
X59282061Y-117563004D01*
X59297624Y-117578567D01*
X59299435Y-117580476D01*
X59345530Y-117631669D01*
X59358123Y-117640818D01*
X59370127Y-117651070D01*
X60529925Y-118810868D01*
X60540176Y-118822870D01*
X60549330Y-118835469D01*
X60600522Y-118881563D01*
X60602433Y-118883376D01*
X60617998Y-118898941D01*
X60635096Y-118912786D01*
X60637077Y-118914477D01*
X60688285Y-118960585D01*
X60701774Y-118968372D01*
X60714782Y-118977313D01*
X60726872Y-118987104D01*
X60726873Y-118987104D01*
X60726875Y-118987106D01*
X60788266Y-119018386D01*
X60790514Y-119019606D01*
X60850215Y-119054075D01*
X60865018Y-119058885D01*
X60879601Y-119064924D01*
X60893475Y-119071994D01*
X60960051Y-119089832D01*
X60962507Y-119090560D01*
X61028044Y-119111855D01*
X61043529Y-119113482D01*
X61059049Y-119116359D01*
X61074085Y-119120388D01*
X61142873Y-119123992D01*
X61145482Y-119124198D01*
X61150395Y-119124714D01*
X61167380Y-119126500D01*
X61189392Y-119126500D01*
X61192022Y-119126568D01*
X61214348Y-119127739D01*
X61260808Y-119130174D01*
X61260808Y-119130173D01*
X61260810Y-119130174D01*
X61276184Y-119127738D01*
X61291922Y-119126500D01*
X67898380Y-119126500D01*
X77931380Y-119126500D01*
X87964380Y-119126500D01*
X97997380Y-119126500D01*
X107241070Y-119126500D01*
X107300201Y-119145713D01*
X107336746Y-119196013D01*
X107336746Y-119258187D01*
X107322458Y-119286228D01*
X107316221Y-119294814D01*
X107302431Y-119313795D01*
X107302427Y-119313800D01*
X107226377Y-119484612D01*
X107226374Y-119484618D01*
X107213451Y-119545419D01*
X107187500Y-119667510D01*
X107187500Y-119854490D01*
X107226375Y-120037385D01*
X107302427Y-120208200D01*
X107302428Y-120208202D01*
X107302429Y-120208203D01*
X107412333Y-120359473D01*
X107412337Y-120359477D01*
X107539769Y-120474216D01*
X107551285Y-120484585D01*
X107713215Y-120578075D01*
X107891044Y-120635855D01*
X107891043Y-120635855D01*
X107903144Y-120637126D01*
X108030380Y-120650500D01*
X117936380Y-120650500D01*
X127969380Y-120650500D01*
X137969380Y-120650500D01*
X141939380Y-120650500D01*
X147422247Y-120650500D01*
X147424877Y-120650568D01*
X147465277Y-120652686D01*
X147493817Y-120654182D01*
X147493817Y-120654181D01*
X147493818Y-120654182D01*
X147562024Y-120643378D01*
X147564616Y-120643037D01*
X147632956Y-120635855D01*
X147647707Y-120631061D01*
X147663047Y-120627377D01*
X147678495Y-120624932D01*
X147742986Y-120600175D01*
X147745418Y-120599312D01*
X147810785Y-120578075D01*
X147824224Y-120570315D01*
X147838451Y-120563530D01*
X147853057Y-120557924D01*
X147911016Y-120520283D01*
X147913235Y-120518924D01*
X147972715Y-120484585D01*
X147984230Y-120474215D01*
X147996757Y-120464603D01*
X148009872Y-120456087D01*
X148058743Y-120407214D01*
X148060625Y-120405429D01*
X148111669Y-120359470D01*
X148120774Y-120346936D01*
X148131035Y-120334923D01*
X148142087Y-120323872D01*
X148179737Y-120265895D01*
X148181187Y-120263785D01*
X148221573Y-120208200D01*
X148227879Y-120194033D01*
X148235405Y-120180173D01*
X148243924Y-120167057D01*
X148268691Y-120102531D01*
X148269675Y-120100157D01*
X148297625Y-120037385D01*
X148300849Y-120022214D01*
X148305328Y-120007092D01*
X148310932Y-119992495D01*
X148321742Y-119924231D01*
X148322207Y-119921727D01*
X148336500Y-119854490D01*
X148336500Y-119838978D01*
X148337739Y-119823240D01*
X148337968Y-119821796D01*
X148340182Y-119807818D01*
X148336568Y-119738877D01*
X148336500Y-119736247D01*
X148336500Y-119667507D01*
X148336499Y-119667506D01*
X148333273Y-119652326D01*
X148331212Y-119636672D01*
X148330504Y-119623159D01*
X149841580Y-119623159D01*
X150499999Y-120281579D01*
X151158419Y-119623159D01*
X150972396Y-119546106D01*
X150739146Y-119490108D01*
X150739140Y-119490107D01*
X150500000Y-119471287D01*
X150260859Y-119490107D01*
X150260853Y-119490108D01*
X150027603Y-119546106D01*
X149841580Y-119623159D01*
X148330504Y-119623159D01*
X148330396Y-119621093D01*
X148312536Y-119554440D01*
X148311926Y-119551898D01*
X148310548Y-119545414D01*
X148297625Y-119484615D01*
X148291305Y-119470421D01*
X148286036Y-119455541D01*
X148282002Y-119440483D01*
X148250697Y-119379045D01*
X148249567Y-119376676D01*
X148221574Y-119313803D01*
X148221573Y-119313800D01*
X148212434Y-119301221D01*
X148204184Y-119287759D01*
X148197115Y-119273884D01*
X148197112Y-119273880D01*
X148153752Y-119220335D01*
X148152149Y-119218245D01*
X148111671Y-119162532D01*
X148060476Y-119116435D01*
X148058567Y-119114624D01*
X148043004Y-119099061D01*
X148043002Y-119099059D01*
X148025898Y-119085209D01*
X148023902Y-119083503D01*
X147972719Y-119037418D01*
X147972716Y-119037415D01*
X147959231Y-119029630D01*
X147946220Y-119020688D01*
X147944100Y-119018971D01*
X147934125Y-119010893D01*
X147934123Y-119010892D01*
X147934122Y-119010891D01*
X147911080Y-118999151D01*
X147872734Y-118979613D01*
X147870456Y-118978376D01*
X147810785Y-118943925D01*
X147810781Y-118943923D01*
X147795976Y-118939113D01*
X147781394Y-118933073D01*
X147767523Y-118926005D01*
X147700979Y-118908174D01*
X147698456Y-118907426D01*
X147648888Y-118891321D01*
X147632956Y-118886145D01*
X147632954Y-118886144D01*
X147632952Y-118886144D01*
X147617471Y-118884517D01*
X147601954Y-118881640D01*
X147586915Y-118877611D01*
X147586914Y-118877611D01*
X147518125Y-118874005D01*
X147515503Y-118873799D01*
X147493630Y-118871500D01*
X147493620Y-118871500D01*
X147471615Y-118871500D01*
X147468984Y-118871431D01*
X147464827Y-118871213D01*
X147400191Y-118867825D01*
X147400188Y-118867826D01*
X147384816Y-118870261D01*
X147369078Y-118871500D01*
X140154930Y-118871500D01*
X140095799Y-118852287D01*
X140059254Y-118801987D01*
X140059254Y-118739813D01*
X140073541Y-118711771D01*
X140093573Y-118684200D01*
X140169625Y-118513385D01*
X140208500Y-118330490D01*
X140208500Y-118143510D01*
X140169625Y-117960615D01*
X140093573Y-117789800D01*
X139983669Y-117638530D01*
X139983668Y-117638529D01*
X139983666Y-117638526D01*
X139983662Y-117638522D01*
X139844720Y-117513419D01*
X139844714Y-117513414D01*
X139682785Y-117419925D01*
X139682782Y-117419924D01*
X139599173Y-117392758D01*
X139504956Y-117362145D01*
X139504954Y-117362144D01*
X139504956Y-117362144D01*
X139389820Y-117350043D01*
X139365620Y-117347500D01*
X139365618Y-117347500D01*
X61624113Y-117347500D01*
X61564982Y-117328287D01*
X61552978Y-117318035D01*
X60862965Y-116628022D01*
X60834739Y-116572624D01*
X60833500Y-116556887D01*
X60833500Y-116376638D01*
X144267608Y-116376638D01*
X144298560Y-116552177D01*
X144369159Y-116715844D01*
X144475601Y-116858821D01*
X144475605Y-116858825D01*
X144612146Y-116973395D01*
X144612153Y-116973400D01*
X144771431Y-117053393D01*
X144771433Y-117053393D01*
X144771434Y-117053394D01*
X144944874Y-117094499D01*
X144944874Y-117094500D01*
X144944877Y-117094500D01*
X148510325Y-117094500D01*
X148569456Y-117113713D01*
X148598943Y-117147485D01*
X148638431Y-117220979D01*
X149055843Y-117997871D01*
X149058007Y-118002431D01*
X149137457Y-118194244D01*
X149137459Y-118194249D01*
X149262838Y-118398846D01*
X149262844Y-118398854D01*
X149418679Y-118581315D01*
X149418684Y-118581320D01*
X149601145Y-118737155D01*
X149601151Y-118737160D01*
X149656208Y-118770899D01*
X149805750Y-118862540D01*
X149805755Y-118862541D01*
X150027447Y-118954369D01*
X150027448Y-118954369D01*
X150027450Y-118954370D01*
X150123015Y-118977313D01*
X150260778Y-119010387D01*
X150500000Y-119029214D01*
X150739222Y-119010387D01*
X150972549Y-118954370D01*
X150972550Y-118954370D01*
X150972551Y-118954369D01*
X150972553Y-118954369D01*
X151194249Y-118862540D01*
X151398849Y-118737160D01*
X151581318Y-118581318D01*
X151737160Y-118398849D01*
X151862540Y-118194249D01*
X151954369Y-117972553D01*
X152010387Y-117739222D01*
X152029214Y-117500000D01*
X152010387Y-117260778D01*
X151978895Y-117129603D01*
X151954370Y-117027450D01*
X151954370Y-117027449D01*
X151862542Y-116805756D01*
X151862540Y-116805750D01*
X151737161Y-116601153D01*
X151737160Y-116601151D01*
X151581318Y-116418682D01*
X151581315Y-116418679D01*
X151398854Y-116262844D01*
X151398846Y-116262838D01*
X151194249Y-116137459D01*
X151194243Y-116137457D01*
X150972549Y-116045629D01*
X150739228Y-115989614D01*
X150739219Y-115989612D01*
X150522342Y-115972544D01*
X150500000Y-115970786D01*
X150499999Y-115970786D01*
X150422623Y-115976875D01*
X150390208Y-115974150D01*
X149966058Y-115867538D01*
X149919446Y-115841108D01*
X149915631Y-115837293D01*
X149906072Y-115826232D01*
X149890398Y-115805178D01*
X149849308Y-115770699D01*
X149846076Y-115767738D01*
X149839766Y-115761428D01*
X149814184Y-115741200D01*
X149813050Y-115740276D01*
X149753856Y-115690606D01*
X149753843Y-115690598D01*
X149752999Y-115690174D01*
X149735767Y-115679196D01*
X149735020Y-115678605D01*
X149703110Y-115663725D01*
X149664934Y-115645923D01*
X149663671Y-115645312D01*
X149594566Y-115610606D01*
X149594565Y-115610605D01*
X149594564Y-115610605D01*
X149594562Y-115610604D01*
X149593640Y-115610386D01*
X149574326Y-115603672D01*
X149573475Y-115603275D01*
X149497753Y-115587640D01*
X149496350Y-115587328D01*
X149457626Y-115578151D01*
X149421125Y-115569500D01*
X149421123Y-115569500D01*
X149420178Y-115569500D01*
X149399835Y-115567422D01*
X149398907Y-115567230D01*
X149353308Y-115568557D01*
X149321621Y-115569479D01*
X149320208Y-115569500D01*
X148769104Y-115569500D01*
X148766012Y-115569405D01*
X148740008Y-115567803D01*
X148736167Y-115568063D01*
X148721578Y-115569500D01*
X144989587Y-115569500D01*
X144856958Y-115585001D01*
X144689459Y-115645966D01*
X144540536Y-115743916D01*
X144418216Y-115873567D01*
X144418214Y-115873569D01*
X144329096Y-116027927D01*
X144329094Y-116027932D01*
X144277972Y-116198692D01*
X144267608Y-116376638D01*
X60833500Y-116376638D01*
X60833500Y-112170112D01*
X60852713Y-112110981D01*
X60862965Y-112098977D01*
X62811860Y-110150082D01*
X62881558Y-110080384D01*
X98419686Y-110080384D01*
X98424386Y-110150082D01*
X98424500Y-110153467D01*
X98424500Y-110166053D01*
X98428287Y-110208142D01*
X98428375Y-110209264D01*
X98435070Y-110308548D01*
X98435072Y-110308558D01*
X98436644Y-110314798D01*
X98439285Y-110330345D01*
X98439863Y-110336766D01*
X98466349Y-110432742D01*
X98466637Y-110433831D01*
X98490948Y-110530310D01*
X98490951Y-110530318D01*
X98493612Y-110536177D01*
X98498991Y-110551011D01*
X98500707Y-110557230D01*
X98543907Y-110646937D01*
X98544385Y-110647959D01*
X98562990Y-110688918D01*
X98585528Y-110738536D01*
X98585529Y-110738537D01*
X98585533Y-110738545D01*
X98589196Y-110743832D01*
X98597136Y-110757466D01*
X98599930Y-110763267D01*
X98599931Y-110763269D01*
X98599933Y-110763272D01*
X98658432Y-110843790D01*
X98659056Y-110844669D01*
X98715764Y-110926523D01*
X98720321Y-110931080D01*
X98730571Y-110943082D01*
X98734349Y-110948282D01*
X98734354Y-110948288D01*
X98806268Y-111017044D01*
X98807075Y-111017833D01*
X99252174Y-111462932D01*
X99255935Y-111467141D01*
X99280978Y-111498544D01*
X99280980Y-111498545D01*
X99280981Y-111498547D01*
X99333587Y-111544507D01*
X99336059Y-111546818D01*
X99344966Y-111555724D01*
X99344969Y-111555726D01*
X99377405Y-111582806D01*
X99378263Y-111583539D01*
X99453197Y-111649007D01*
X99453198Y-111649007D01*
X99453201Y-111649010D01*
X99458724Y-111652310D01*
X99471598Y-111661444D01*
X99476545Y-111665574D01*
X99563183Y-111714734D01*
X99564082Y-111715258D01*
X99649523Y-111766307D01*
X99655543Y-111768566D01*
X99669849Y-111775259D01*
X99675443Y-111778434D01*
X99675457Y-111778440D01*
X99706761Y-111789392D01*
X99769457Y-111811330D01*
X99770434Y-111811685D01*
X99863634Y-111846665D01*
X99869979Y-111847816D01*
X99885234Y-111851842D01*
X99891311Y-111853969D01*
X99918427Y-111858263D01*
X99989592Y-111869535D01*
X99990668Y-111869717D01*
X100088653Y-111887500D01*
X100095099Y-111887500D01*
X100110837Y-111888739D01*
X100111716Y-111888878D01*
X100117189Y-111889745D01*
X100178766Y-111888363D01*
X100216676Y-111887513D01*
X100217805Y-111887500D01*
X102501653Y-111887500D01*
X121043653Y-111887500D01*
X121531492Y-111887500D01*
X121590623Y-111906713D01*
X121602627Y-111916965D01*
X121986035Y-112300372D01*
X122014261Y-112355770D01*
X122015500Y-112371507D01*
X122015500Y-113571122D01*
X122014438Y-113585702D01*
X122010633Y-113611673D01*
X122015308Y-113665099D01*
X122015500Y-113669486D01*
X122015500Y-113678415D01*
X122019283Y-113710788D01*
X122019431Y-113712241D01*
X122026168Y-113789235D01*
X122026171Y-113789251D01*
X122026470Y-113790153D01*
X122030889Y-113810083D01*
X122031000Y-113811034D01*
X122031003Y-113811045D01*
X122057429Y-113883651D01*
X122057909Y-113885033D01*
X122082235Y-113958439D01*
X122082235Y-113958440D01*
X122082737Y-113959254D01*
X122091639Y-113977642D01*
X122091964Y-113978535D01*
X122091965Y-113978536D01*
X122091966Y-113978539D01*
X122106081Y-114000000D01*
X122134440Y-114043119D01*
X122135226Y-114044352D01*
X122175808Y-114110144D01*
X122175813Y-114110150D01*
X122176480Y-114110817D01*
X122189389Y-114126663D01*
X122189915Y-114127462D01*
X122217288Y-114153287D01*
X122246155Y-114180522D01*
X122247204Y-114181541D01*
X123495372Y-115429710D01*
X123504930Y-115440771D01*
X123520602Y-115461822D01*
X123520602Y-115461823D01*
X123526608Y-115466862D01*
X123561691Y-115496300D01*
X123564922Y-115499260D01*
X123571235Y-115505573D01*
X123596814Y-115525798D01*
X123597937Y-115526713D01*
X123657147Y-115576396D01*
X123657980Y-115576814D01*
X123675234Y-115587805D01*
X123675980Y-115588395D01*
X123746110Y-115621096D01*
X123747312Y-115621679D01*
X123816434Y-115656394D01*
X123817191Y-115656573D01*
X123817341Y-115656609D01*
X123836684Y-115663332D01*
X123837527Y-115663725D01*
X123909587Y-115678603D01*
X123913219Y-115679353D01*
X123914637Y-115679667D01*
X123989877Y-115697500D01*
X123990823Y-115697500D01*
X124011166Y-115699578D01*
X124011621Y-115699671D01*
X124012092Y-115699769D01*
X124012092Y-115699768D01*
X124012093Y-115699769D01*
X124014942Y-115699686D01*
X124089394Y-115697520D01*
X124090806Y-115697500D01*
X137832877Y-115697500D01*
X141542122Y-115697500D01*
X141556702Y-115698562D01*
X141559686Y-115698998D01*
X141582672Y-115702366D01*
X141619787Y-115699118D01*
X141636101Y-115697692D01*
X141640487Y-115697500D01*
X141649418Y-115697500D01*
X141664967Y-115695681D01*
X141681854Y-115693707D01*
X141683166Y-115693573D01*
X141740599Y-115688549D01*
X141760234Y-115686832D01*
X141760235Y-115686831D01*
X141760240Y-115686831D01*
X141761140Y-115686532D01*
X141781103Y-115682108D01*
X141781396Y-115682073D01*
X141782042Y-115681998D01*
X141854714Y-115655547D01*
X141856013Y-115655095D01*
X141929440Y-115630765D01*
X141930235Y-115630274D01*
X141948656Y-115621355D01*
X141949539Y-115621034D01*
X142014146Y-115578539D01*
X142015347Y-115577774D01*
X142081149Y-115537188D01*
X142081811Y-115536524D01*
X142097676Y-115523602D01*
X142097778Y-115523534D01*
X142098462Y-115523085D01*
X142151535Y-115466829D01*
X142152491Y-115465844D01*
X142683573Y-114934765D01*
X142683574Y-114934762D01*
X142687926Y-114930411D01*
X142687933Y-114930402D01*
X143877714Y-113740622D01*
X143888760Y-113731076D01*
X143909822Y-113715398D01*
X143944315Y-113674289D01*
X143947249Y-113671087D01*
X143953573Y-113664765D01*
X143973856Y-113639111D01*
X143974671Y-113638111D01*
X144024396Y-113578853D01*
X144024813Y-113578021D01*
X144035812Y-113560756D01*
X144036395Y-113560020D01*
X144069072Y-113489941D01*
X144069696Y-113488652D01*
X144104394Y-113419566D01*
X144104608Y-113418660D01*
X144111332Y-113399316D01*
X144111725Y-113398474D01*
X144127365Y-113322722D01*
X144127654Y-113321418D01*
X144145500Y-113246123D01*
X144145500Y-113245177D01*
X144147579Y-113224831D01*
X144147769Y-113223908D01*
X144145780Y-113155556D01*
X144145520Y-113146622D01*
X144145500Y-113145207D01*
X144145500Y-112371507D01*
X144164713Y-112312376D01*
X144174965Y-112300372D01*
X144558372Y-111916965D01*
X144613770Y-111888739D01*
X144629507Y-111887500D01*
X144665653Y-111887500D01*
X149038071Y-111887500D01*
X149097202Y-111906713D01*
X149109206Y-111916965D01*
X149200035Y-112007793D01*
X149228261Y-112063190D01*
X149229500Y-112078928D01*
X149229500Y-113127182D01*
X149214676Y-113179745D01*
X149137458Y-113305754D01*
X149137457Y-113305756D01*
X149045629Y-113527449D01*
X149045629Y-113527450D01*
X148989614Y-113760771D01*
X148989612Y-113760780D01*
X148970786Y-114000000D01*
X148989612Y-114239219D01*
X148989614Y-114239228D01*
X149045629Y-114472549D01*
X149045629Y-114472550D01*
X149137457Y-114694243D01*
X149137459Y-114694249D01*
X149262838Y-114898846D01*
X149262844Y-114898854D01*
X149293510Y-114934760D01*
X149418682Y-115081318D01*
X149601151Y-115237160D01*
X149601153Y-115237161D01*
X149805750Y-115362540D01*
X149805755Y-115362541D01*
X150027447Y-115454369D01*
X150027448Y-115454369D01*
X150027450Y-115454370D01*
X150136384Y-115480522D01*
X150260778Y-115510387D01*
X150500000Y-115529214D01*
X150739222Y-115510387D01*
X150972549Y-115454370D01*
X150972550Y-115454370D01*
X150972551Y-115454369D01*
X150972553Y-115454369D01*
X151194249Y-115362540D01*
X151398849Y-115237160D01*
X151581318Y-115081318D01*
X151737160Y-114898849D01*
X151862540Y-114694249D01*
X151954369Y-114472553D01*
X152010387Y-114239222D01*
X152029214Y-114000000D01*
X152010387Y-113760778D01*
X151966512Y-113578027D01*
X151954370Y-113527450D01*
X151954370Y-113527449D01*
X151862542Y-113305756D01*
X151862541Y-113305754D01*
X151862540Y-113305751D01*
X151817003Y-113231442D01*
X151785324Y-113179745D01*
X151770500Y-113127182D01*
X151770500Y-111585169D01*
X151770817Y-111579533D01*
X151774637Y-111545626D01*
X151775314Y-111539622D01*
X151770613Y-111469915D01*
X151770500Y-111466531D01*
X151770500Y-111453950D01*
X151767948Y-111425596D01*
X151766706Y-111411797D01*
X151766622Y-111410722D01*
X151765644Y-111396215D01*
X151759929Y-111311447D01*
X151758354Y-111305199D01*
X151755712Y-111289641D01*
X151755135Y-111283232D01*
X151755135Y-111283227D01*
X151728643Y-111187236D01*
X151728355Y-111186144D01*
X151718618Y-111147502D01*
X151704050Y-111089685D01*
X151701386Y-111083820D01*
X151696009Y-111068989D01*
X151694294Y-111062774D01*
X151672651Y-111017833D01*
X151651110Y-110973102D01*
X151650631Y-110972079D01*
X151639822Y-110948282D01*
X151609473Y-110881464D01*
X151605800Y-110876163D01*
X151597856Y-110862520D01*
X151595067Y-110856728D01*
X151595065Y-110856725D01*
X151595065Y-110856724D01*
X151536584Y-110776232D01*
X151535931Y-110775312D01*
X151479235Y-110693476D01*
X151474677Y-110688918D01*
X151464423Y-110676912D01*
X151460644Y-110671710D01*
X151435802Y-110647959D01*
X151388733Y-110602956D01*
X151387926Y-110602167D01*
X150556829Y-109771071D01*
X150553068Y-109766862D01*
X150528026Y-109735460D01*
X150528023Y-109735457D01*
X150528022Y-109735456D01*
X150475405Y-109689486D01*
X150472931Y-109687173D01*
X150464031Y-109678273D01*
X150431572Y-109651174D01*
X150430768Y-109650488D01*
X150355799Y-109584990D01*
X150355798Y-109584989D01*
X150350274Y-109581689D01*
X150337398Y-109572553D01*
X150332455Y-109568426D01*
X150312164Y-109556912D01*
X150245878Y-109519300D01*
X150244903Y-109518732D01*
X150159480Y-109467695D01*
X150159477Y-109467693D01*
X150159472Y-109467691D01*
X150153437Y-109465425D01*
X150139157Y-109458744D01*
X150133550Y-109455563D01*
X150039607Y-109422691D01*
X150038546Y-109422306D01*
X149945370Y-109387336D01*
X149945362Y-109387333D01*
X149939013Y-109386181D01*
X149923770Y-109382158D01*
X149917692Y-109380032D01*
X149917679Y-109380028D01*
X149819417Y-109364465D01*
X149818305Y-109364276D01*
X149720352Y-109346500D01*
X149720347Y-109346500D01*
X149713906Y-109346500D01*
X149698168Y-109345261D01*
X149691811Y-109344254D01*
X149691810Y-109344254D01*
X149688617Y-109344325D01*
X149592297Y-109346487D01*
X149591168Y-109346500D01*
X103051044Y-109346500D01*
X102991913Y-109327287D01*
X102968352Y-109303192D01*
X102960234Y-109291475D01*
X100669678Y-107000919D01*
X100659428Y-106988917D01*
X100655650Y-106983717D01*
X100655637Y-106983703D01*
X100583712Y-106914936D01*
X100582905Y-106914147D01*
X100553039Y-106884281D01*
X100553036Y-106884278D01*
X100548107Y-106880163D01*
X100543375Y-106876212D01*
X100540851Y-106873957D01*
X100490345Y-106825668D01*
X100456816Y-106803534D01*
X100452288Y-106800167D01*
X100421457Y-106774427D01*
X100421456Y-106774426D01*
X100360672Y-106739935D01*
X100357787Y-106738166D01*
X100299487Y-106699684D01*
X100299478Y-106699679D01*
X100262543Y-106683892D01*
X100257501Y-106681394D01*
X100235749Y-106669052D01*
X100222555Y-106661565D01*
X100222551Y-106661563D01*
X100222550Y-106661563D01*
X100189557Y-106650018D01*
X100156599Y-106638485D01*
X100153443Y-106637260D01*
X100089192Y-106609798D01*
X100050021Y-106600857D01*
X100044600Y-106599295D01*
X100019971Y-106590678D01*
X100006689Y-106586031D01*
X100006686Y-106586030D01*
X100006682Y-106586029D01*
X99937689Y-106575102D01*
X99934365Y-106574460D01*
X99866234Y-106558910D01*
X99826101Y-106557106D01*
X99820488Y-106556537D01*
X99787171Y-106551261D01*
X99780810Y-106550254D01*
X99780809Y-106550254D01*
X99710954Y-106551821D01*
X99707569Y-106551783D01*
X99637769Y-106548649D01*
X99637768Y-106548649D01*
X99637765Y-106548649D01*
X99597956Y-106554041D01*
X99592332Y-106554483D01*
X99552167Y-106555386D01*
X99483721Y-106569401D01*
X99480384Y-106569968D01*
X99411152Y-106579346D01*
X99411141Y-106579349D01*
X99372931Y-106591762D01*
X99367477Y-106593202D01*
X99328132Y-106601259D01*
X99328123Y-106601261D01*
X99263275Y-106627272D01*
X99260094Y-106628426D01*
X99193644Y-106650018D01*
X99193643Y-106650018D01*
X99158270Y-106669052D01*
X99153161Y-106671442D01*
X99122128Y-106683892D01*
X99115874Y-106686401D01*
X99094737Y-106699682D01*
X99056708Y-106723576D01*
X99053795Y-106725272D01*
X98999653Y-106754408D01*
X98992255Y-106758390D01*
X98960848Y-106783435D01*
X98956245Y-106786701D01*
X98922232Y-106808072D01*
X98870653Y-106855218D01*
X98868079Y-106857417D01*
X98813459Y-106900975D01*
X98813450Y-106900983D01*
X98787035Y-106931218D01*
X98783091Y-106935252D01*
X98753429Y-106962366D01*
X98711097Y-107017962D01*
X98708957Y-107020584D01*
X98662990Y-107073200D01*
X98662989Y-107073202D01*
X98642389Y-107107678D01*
X98639228Y-107112352D01*
X98614896Y-107144308D01*
X98614885Y-107144326D01*
X98583160Y-107206590D01*
X98581523Y-107209552D01*
X98545696Y-107269517D01*
X98545689Y-107269531D01*
X98531580Y-107307125D01*
X98529304Y-107312287D01*
X98511063Y-107348090D01*
X98490971Y-107414996D01*
X98489890Y-107418203D01*
X98465334Y-107483633D01*
X98458159Y-107523168D01*
X98456842Y-107528652D01*
X98445292Y-107567120D01*
X98445290Y-107567131D01*
X98437470Y-107636534D01*
X98436978Y-107639883D01*
X98424500Y-107708653D01*
X98424500Y-107748829D01*
X98424183Y-107754465D01*
X98419686Y-107794370D01*
X98419686Y-107794384D01*
X98424386Y-107864082D01*
X98424500Y-107867467D01*
X98424500Y-110034829D01*
X98424183Y-110040465D01*
X98419686Y-110080370D01*
X98419686Y-110080384D01*
X62881558Y-110080384D01*
X64835874Y-108126067D01*
X64847875Y-108115819D01*
X64860470Y-108106669D01*
X64906591Y-108055444D01*
X64908359Y-108053582D01*
X64923937Y-108038006D01*
X64937788Y-108020900D01*
X64939492Y-108018906D01*
X64945482Y-108012253D01*
X64985585Y-107967715D01*
X64993367Y-107954235D01*
X65002310Y-107941221D01*
X65012107Y-107929125D01*
X65043383Y-107867739D01*
X65044636Y-107865434D01*
X65079073Y-107805789D01*
X65079073Y-107805787D01*
X65079075Y-107805785D01*
X65083886Y-107790974D01*
X65089925Y-107776395D01*
X65096994Y-107762525D01*
X65114832Y-107695946D01*
X65115557Y-107693502D01*
X65136855Y-107627956D01*
X65138482Y-107612473D01*
X65141360Y-107596948D01*
X65145386Y-107581924D01*
X65145386Y-107581921D01*
X65145388Y-107581915D01*
X65148992Y-107513125D01*
X65149198Y-107510517D01*
X65150251Y-107500499D01*
X65151500Y-107488620D01*
X65151500Y-107466606D01*
X65151569Y-107463973D01*
X65151733Y-107460838D01*
X65155174Y-107395190D01*
X65152738Y-107379815D01*
X65151500Y-107364078D01*
X65151500Y-106095151D01*
X101544700Y-106095151D01*
X101584266Y-106281294D01*
X101661668Y-106455143D01*
X101661669Y-106455144D01*
X101661670Y-106455146D01*
X101773523Y-106609099D01*
X101773531Y-106609108D01*
X101914941Y-106736433D01*
X101914947Y-106736438D01*
X102079753Y-106831589D01*
X102079754Y-106831589D01*
X102079755Y-106831590D01*
X102260737Y-106890394D01*
X102260738Y-106890394D01*
X102260741Y-106890395D01*
X102402552Y-106905300D01*
X102402556Y-106905300D01*
X102497444Y-106905300D01*
X102497448Y-106905300D01*
X102639259Y-106890395D01*
X102820247Y-106831589D01*
X102985053Y-106736438D01*
X103057238Y-106671442D01*
X103126468Y-106609108D01*
X103126471Y-106609104D01*
X103126475Y-106609101D01*
X103238332Y-106455144D01*
X103315734Y-106281294D01*
X103355300Y-106095151D01*
X139644700Y-106095151D01*
X139684266Y-106281294D01*
X139761668Y-106455143D01*
X139761669Y-106455144D01*
X139761670Y-106455146D01*
X139873523Y-106609099D01*
X139873531Y-106609108D01*
X140014941Y-106736433D01*
X140014947Y-106736438D01*
X140179753Y-106831589D01*
X140179754Y-106831589D01*
X140179755Y-106831590D01*
X140360737Y-106890394D01*
X140360738Y-106890394D01*
X140360741Y-106890395D01*
X140502552Y-106905300D01*
X140502556Y-106905300D01*
X140597444Y-106905300D01*
X140597448Y-106905300D01*
X140739259Y-106890395D01*
X140920247Y-106831589D01*
X141085053Y-106736438D01*
X141157238Y-106671442D01*
X141226468Y-106609108D01*
X141226471Y-106609104D01*
X141226475Y-106609101D01*
X141338332Y-106455144D01*
X141415734Y-106281294D01*
X141455300Y-106095151D01*
X141455300Y-105904849D01*
X141415734Y-105718706D01*
X141338332Y-105544857D01*
X141226475Y-105390899D01*
X141226468Y-105390891D01*
X141085058Y-105263566D01*
X141085052Y-105263561D01*
X141015396Y-105223346D01*
X140920247Y-105168411D01*
X140920245Y-105168410D01*
X140920244Y-105168409D01*
X140739262Y-105109605D01*
X140632900Y-105098426D01*
X140597448Y-105094700D01*
X140502552Y-105094700D01*
X140360737Y-105109605D01*
X140179755Y-105168409D01*
X140179753Y-105168411D01*
X140014947Y-105263561D01*
X140014941Y-105263566D01*
X139873531Y-105390891D01*
X139873523Y-105390900D01*
X139761670Y-105544852D01*
X139761668Y-105544855D01*
X139684265Y-105718707D01*
X139654366Y-105859372D01*
X139644700Y-105904849D01*
X139644700Y-106095151D01*
X103355300Y-106095151D01*
X103355300Y-105904849D01*
X103315734Y-105718706D01*
X103238332Y-105544857D01*
X103126475Y-105390899D01*
X103126468Y-105390891D01*
X102985058Y-105263566D01*
X102985052Y-105263561D01*
X102915396Y-105223345D01*
X102820247Y-105168411D01*
X102820245Y-105168410D01*
X102820244Y-105168409D01*
X102639262Y-105109605D01*
X102532900Y-105098426D01*
X102497448Y-105094700D01*
X102402552Y-105094700D01*
X102260737Y-105109605D01*
X102079755Y-105168409D01*
X102079753Y-105168411D01*
X101914947Y-105263561D01*
X101914941Y-105263566D01*
X101773531Y-105390891D01*
X101773523Y-105390900D01*
X101661670Y-105544852D01*
X101661668Y-105544855D01*
X101584265Y-105718707D01*
X101554366Y-105859372D01*
X101544700Y-105904849D01*
X101544700Y-106095151D01*
X65151500Y-106095151D01*
X65151500Y-104093316D01*
X147495772Y-104093316D01*
X147525542Y-104465251D01*
X147525543Y-104465258D01*
X147525544Y-104465265D01*
X147594683Y-104831941D01*
X147702404Y-105189191D01*
X147702406Y-105189195D01*
X147702407Y-105189199D01*
X147787532Y-105390900D01*
X147847489Y-105532967D01*
X148028293Y-105859374D01*
X148242768Y-106164713D01*
X148368479Y-106308381D01*
X148488486Y-106445529D01*
X148762644Y-106698620D01*
X148762651Y-106698626D01*
X148762655Y-106698629D01*
X149062177Y-106921156D01*
X149383655Y-107110585D01*
X149601757Y-107209552D01*
X149723448Y-107264771D01*
X150077683Y-107381958D01*
X150077687Y-107381959D01*
X150077702Y-107381964D01*
X150442408Y-107460839D01*
X150752374Y-107493974D01*
X150813420Y-107500500D01*
X150813423Y-107500500D01*
X150813431Y-107500501D01*
X150813437Y-107500501D01*
X151093206Y-107500501D01*
X151093213Y-107500501D01*
X151372609Y-107485610D01*
X151740995Y-107426257D01*
X152100986Y-107328084D01*
X152448503Y-107192202D01*
X152779607Y-107020151D01*
X153090547Y-106813881D01*
X153377801Y-106575728D01*
X153638114Y-106308391D01*
X153868535Y-106014899D01*
X154066455Y-105698578D01*
X154229631Y-105363011D01*
X154356213Y-105012001D01*
X154444769Y-104649524D01*
X154494294Y-104279688D01*
X154504227Y-103906683D01*
X154474456Y-103534735D01*
X154405317Y-103168059D01*
X154297596Y-102810809D01*
X154152511Y-102467033D01*
X153971707Y-102140626D01*
X153757232Y-101835287D01*
X153511517Y-101554474D01*
X153370477Y-101424272D01*
X153237355Y-101301379D01*
X153237346Y-101301372D01*
X152937823Y-101078844D01*
X152937818Y-101078841D01*
X152769823Y-100979851D01*
X152616345Y-100889415D01*
X152616343Y-100889414D01*
X152276551Y-100735228D01*
X151922316Y-100618041D01*
X151922301Y-100618037D01*
X151922298Y-100618036D01*
X151557592Y-100539161D01*
X151557591Y-100539161D01*
X151186579Y-100499499D01*
X151186569Y-100499499D01*
X150906787Y-100499499D01*
X150906781Y-100499499D01*
X150906752Y-100499500D01*
X150627398Y-100514389D01*
X150627396Y-100514389D01*
X150259005Y-100573742D01*
X149899015Y-100671915D01*
X149899004Y-100671919D01*
X149551507Y-100807793D01*
X149551504Y-100807794D01*
X149220389Y-100979851D01*
X148909450Y-101186120D01*
X148909445Y-101186124D01*
X148622203Y-101424268D01*
X148622199Y-101424271D01*
X148622199Y-101424272D01*
X148361886Y-101691609D01*
X148361882Y-101691613D01*
X148361878Y-101691618D01*
X148131469Y-101985095D01*
X148131460Y-101985108D01*
X147933547Y-102301417D01*
X147770368Y-102636990D01*
X147643785Y-102988005D01*
X147555234Y-103350462D01*
X147555231Y-103350478D01*
X147505706Y-103720308D01*
X147505705Y-103720313D01*
X147495772Y-104093310D01*
X147495772Y-104093316D01*
X65151500Y-104093316D01*
X65151500Y-103331384D01*
X65151500Y-103331380D01*
X65136855Y-103192044D01*
X65079075Y-103014215D01*
X64985585Y-102852285D01*
X64985580Y-102852279D01*
X64860477Y-102713337D01*
X64860473Y-102713333D01*
X64709203Y-102603429D01*
X64709202Y-102603428D01*
X64709200Y-102603427D01*
X64538385Y-102527375D01*
X64538381Y-102527374D01*
X64462776Y-102511304D01*
X64355490Y-102488500D01*
X64168510Y-102488500D01*
X64100890Y-102502872D01*
X63985618Y-102527374D01*
X63985616Y-102527374D01*
X63985615Y-102527375D01*
X63814800Y-102603427D01*
X63814796Y-102603429D01*
X63663526Y-102713333D01*
X63663522Y-102713337D01*
X63538419Y-102852279D01*
X63538414Y-102852285D01*
X63444925Y-103014214D01*
X63444924Y-103014217D01*
X63387144Y-103192045D01*
X63372500Y-103331381D01*
X63372500Y-107031886D01*
X63353287Y-107091017D01*
X63343035Y-107103021D01*
X59370127Y-111075928D01*
X59358128Y-111086177D01*
X59345529Y-111095331D01*
X59345525Y-111095334D01*
X59299435Y-111146523D01*
X59297624Y-111148432D01*
X59282060Y-111163997D01*
X59268214Y-111181093D01*
X59266507Y-111183091D01*
X59220416Y-111234282D01*
X59220414Y-111234286D01*
X59212628Y-111247771D01*
X59203692Y-111260773D01*
X59193893Y-111272873D01*
X59193891Y-111272877D01*
X59162624Y-111334242D01*
X59161368Y-111336555D01*
X59126928Y-111396208D01*
X59126921Y-111396224D01*
X59122110Y-111411028D01*
X59116076Y-111425596D01*
X59109007Y-111439471D01*
X59109006Y-111439474D01*
X59091177Y-111506008D01*
X59090430Y-111508530D01*
X59069145Y-111574043D01*
X59067516Y-111589530D01*
X59064642Y-111605035D01*
X59060611Y-111620081D01*
X59060611Y-111620084D01*
X59057005Y-111688874D01*
X59056799Y-111691495D01*
X59054500Y-111713384D01*
X59054500Y-111735385D01*
X59054431Y-111738013D01*
X59050826Y-111806810D01*
X59051598Y-111811687D01*
X59053261Y-111822182D01*
X59054500Y-111837921D01*
X59054500Y-116889078D01*
X59053261Y-116904816D01*
X59050826Y-116920188D01*
X59050826Y-116920190D01*
X55254500Y-116920190D01*
X55254500Y-104093316D01*
X55495772Y-104093316D01*
X55525542Y-104465251D01*
X55525543Y-104465258D01*
X55525544Y-104465265D01*
X55594683Y-104831941D01*
X55702404Y-105189191D01*
X55702406Y-105189195D01*
X55702407Y-105189199D01*
X55787532Y-105390900D01*
X55847489Y-105532967D01*
X56028293Y-105859374D01*
X56242768Y-106164713D01*
X56368479Y-106308381D01*
X56488486Y-106445529D01*
X56762644Y-106698620D01*
X56762651Y-106698626D01*
X56762655Y-106698629D01*
X57062177Y-106921156D01*
X57383655Y-107110585D01*
X57601757Y-107209552D01*
X57723448Y-107264771D01*
X58077683Y-107381958D01*
X58077687Y-107381959D01*
X58077702Y-107381964D01*
X58442408Y-107460839D01*
X58752374Y-107493974D01*
X58813420Y-107500500D01*
X58813423Y-107500500D01*
X58813431Y-107500501D01*
X58813437Y-107500501D01*
X59093206Y-107500501D01*
X59093213Y-107500501D01*
X59372609Y-107485610D01*
X59740995Y-107426257D01*
X60100986Y-107328084D01*
X60448503Y-107192202D01*
X60779607Y-107020151D01*
X61090547Y-106813881D01*
X61377801Y-106575728D01*
X61638114Y-106308391D01*
X61868535Y-106014899D01*
X62066455Y-105698578D01*
X62229631Y-105363011D01*
X62356213Y-105012001D01*
X62444769Y-104649524D01*
X62494294Y-104279688D01*
X62504227Y-103906683D01*
X62474456Y-103534735D01*
X62405317Y-103168059D01*
X62297596Y-102810809D01*
X62152511Y-102467033D01*
X61971707Y-102140626D01*
X61757232Y-101835287D01*
X61511517Y-101554474D01*
X61370477Y-101424272D01*
X61237355Y-101301379D01*
X61237346Y-101301372D01*
X60937823Y-101078844D01*
X60937818Y-101078841D01*
X60769823Y-100979851D01*
X60616345Y-100889415D01*
X60616343Y-100889414D01*
X60276551Y-100735228D01*
X59922316Y-100618041D01*
X59922301Y-100618037D01*
X59922298Y-100618036D01*
X59557592Y-100539161D01*
X59557591Y-100539161D01*
X59186579Y-100499499D01*
X59186569Y-100499499D01*
X58906787Y-100499499D01*
X58906781Y-100499499D01*
X58906752Y-100499500D01*
X58627398Y-100514389D01*
X58627396Y-100514389D01*
X58259005Y-100573742D01*
X57899015Y-100671915D01*
X57899004Y-100671919D01*
X57551507Y-100807793D01*
X57551504Y-100807794D01*
X57220389Y-100979851D01*
X56909450Y-101186120D01*
X56909445Y-101186124D01*
X56622203Y-101424268D01*
X56622199Y-101424271D01*
X56622199Y-101424272D01*
X56361886Y-101691609D01*
X56361882Y-101691613D01*
X56361878Y-101691618D01*
X56131469Y-101985095D01*
X56131460Y-101985108D01*
X55933547Y-102301417D01*
X55770368Y-102636990D01*
X55643785Y-102988005D01*
X55555234Y-103350462D01*
X55555231Y-103350478D01*
X55505706Y-103720308D01*
X55505705Y-103720313D01*
X55495772Y-104093310D01*
X55495772Y-104093316D01*
X55254500Y-104093316D01*
X55254500Y-100355100D01*
X55273713Y-100295969D01*
X55324013Y-100259424D01*
X55355100Y-100254500D01*
X154644900Y-100254500D01*
X154704031Y-100273713D01*
G37*
G04 #@! TD.AperFunction*
G04 #@! TA.AperFunction,Conductor*
G36*
X125070191Y-151810346D02*
G01*
X126695339Y-152904967D01*
X126700287Y-152912430D01*
X126698507Y-152921206D01*
X126697084Y-152922935D01*
X126000715Y-153620699D01*
X125300523Y-154319492D01*
X125292246Y-154322911D01*
X125284680Y-154320125D01*
X123814627Y-153070414D01*
X123810543Y-153062445D01*
X123813291Y-153053922D01*
X123813920Y-153053239D01*
X125055383Y-151811776D01*
X125063655Y-151808350D01*
X125070191Y-151810346D01*
G37*
G04 #@! TD.AperFunction*
G04 #@! TA.AperFunction,Conductor*
G36*
X125362034Y-113166552D02*
G01*
X126338673Y-113282772D01*
X126346483Y-113287152D01*
X126348990Y-113294390D01*
X126348990Y-114035609D01*
X126345563Y-114043882D01*
X126338673Y-114047227D01*
X125362046Y-114163446D01*
X125353425Y-114161021D01*
X125349045Y-114153211D01*
X125348963Y-114151863D01*
X125347990Y-113665000D01*
X125348963Y-113178146D01*
X125352406Y-113169881D01*
X125360686Y-113166471D01*
X125362034Y-113166552D01*
G37*
G04 #@! TD.AperFunction*
G04 #@! TA.AperFunction,Conductor*
G36*
X124052884Y-112037390D02*
G01*
X125026733Y-112139897D01*
X125034602Y-112144171D01*
X125037208Y-112151533D01*
X125037208Y-112892757D01*
X125033781Y-112901030D01*
X125027055Y-112904354D01*
X124053220Y-113034270D01*
X124044567Y-113031967D01*
X124040076Y-113024220D01*
X124039973Y-113022696D01*
X124039736Y-112904354D01*
X124039000Y-112536034D01*
X124039974Y-112049003D01*
X124043417Y-112040737D01*
X124051697Y-112037327D01*
X124052884Y-112037390D01*
G37*
G04 #@! TD.AperFunction*
G04 #@! TA.AperFunction,Conductor*
G36*
X148742865Y-115827656D02*
G01*
X150412055Y-116247214D01*
X150419243Y-116252554D01*
X150420879Y-116257808D01*
X150500422Y-117491053D01*
X150497534Y-117499529D01*
X150492510Y-117502884D01*
X149311223Y-117904253D01*
X149302287Y-117903670D01*
X149297153Y-117898714D01*
X148729712Y-116842592D01*
X148728319Y-116837054D01*
X148728319Y-115839004D01*
X148731746Y-115830731D01*
X148740019Y-115827304D01*
X148742865Y-115827656D01*
G37*
G04 #@! TD.AperFunction*
G04 #@! TA.AperFunction,Conductor*
G36*
X135070191Y-151810346D02*
G01*
X136695339Y-152904967D01*
X136700287Y-152912430D01*
X136698507Y-152921206D01*
X136697084Y-152922935D01*
X136000715Y-153620699D01*
X135300523Y-154319492D01*
X135292246Y-154322911D01*
X135284680Y-154320125D01*
X133814627Y-153070414D01*
X133810543Y-153062445D01*
X133813291Y-153053922D01*
X133813920Y-153053239D01*
X135055383Y-151811776D01*
X135063655Y-151808350D01*
X135070191Y-151810346D01*
G37*
G04 #@! TD.AperFunction*
G04 #@! TA.AperFunction,Conductor*
G36*
X105070191Y-151810346D02*
G01*
X106695339Y-152904967D01*
X106700287Y-152912430D01*
X106698507Y-152921206D01*
X106697084Y-152922935D01*
X106000715Y-153620699D01*
X105300523Y-154319492D01*
X105292246Y-154322911D01*
X105284680Y-154320125D01*
X103814627Y-153070414D01*
X103810543Y-153062445D01*
X103813291Y-153053922D01*
X103813920Y-153053239D01*
X105055383Y-151811776D01*
X105063655Y-151808350D01*
X105070191Y-151810346D01*
G37*
G04 #@! TD.AperFunction*
G04 #@! TA.AperFunction,Conductor*
G36*
X140711564Y-113168978D02*
G01*
X140715944Y-113176788D01*
X140716026Y-113178148D01*
X140717000Y-113665023D01*
X140716026Y-114151851D01*
X140712583Y-114160118D01*
X140704303Y-114163528D01*
X140702943Y-114163446D01*
X139726317Y-114047227D01*
X139718507Y-114042847D01*
X139716000Y-114035609D01*
X139716000Y-113294390D01*
X139719427Y-113286117D01*
X139726316Y-113282772D01*
X140702944Y-113166553D01*
X140711564Y-113168978D01*
G37*
G04 #@! TD.AperFunction*
G04 #@! TA.AperFunction,Conductor*
G36*
X115070191Y-151810346D02*
G01*
X116695339Y-152904967D01*
X116700287Y-152912430D01*
X116698507Y-152921206D01*
X116697084Y-152922935D01*
X116000715Y-153620699D01*
X115300523Y-154319492D01*
X115292246Y-154322911D01*
X115284680Y-154320125D01*
X113814627Y-153070414D01*
X113810543Y-153062445D01*
X113813291Y-153053922D01*
X113813920Y-153053239D01*
X115055383Y-151811776D01*
X115063655Y-151808350D01*
X115070191Y-151810346D01*
G37*
G04 #@! TD.AperFunction*
G04 #@! TA.AperFunction,Conductor*
G36*
X142108564Y-112025978D02*
G01*
X142112944Y-112033788D01*
X142113026Y-112035148D01*
X142114000Y-112522023D01*
X142113026Y-113008851D01*
X142109583Y-113017118D01*
X142101303Y-113020528D01*
X142099943Y-113020446D01*
X141123317Y-112904227D01*
X141115507Y-112899847D01*
X141113000Y-112892609D01*
X141113000Y-112151390D01*
X141116427Y-112143117D01*
X141123316Y-112139772D01*
X142099944Y-112023553D01*
X142108564Y-112025978D01*
G37*
G04 #@! TD.AperFunction*
M02*
