G04 #@! TF.GenerationSoftware,KiCad,Pcbnew,7.0.5-4d25ed1034~172~ubuntu22.04.1*
G04 #@! TF.CreationDate,2023-06-14T16:27:38+03:00*
G04 #@! TF.ProjectId,AgonLight2-HvIO_Rev_A,41676f6e-4c69-4676-9874-322d4876494f,A*
G04 #@! TF.SameCoordinates,Original*
G04 #@! TF.FileFunction,Paste,Top*
G04 #@! TF.FilePolarity,Positive*
%FSLAX46Y46*%
G04 Gerber Fmt 4.6, Leading zero omitted, Abs format (unit mm)*
G04 Created by KiCad (PCBNEW 7.0.5-4d25ed1034~172~ubuntu22.04.1) date 2023-06-14 16:27:38*
%MOMM*%
%LPD*%
G01*
G04 APERTURE LIST*
%ADD10C,1.000000*%
%ADD11R,0.500000X0.550000*%
%ADD12R,0.800000X0.800000*%
%ADD13R,1.654000X2.254000*%
%ADD14R,2.000000X1.700000*%
%ADD15R,1.778000X1.524000*%
%ADD16R,1.400000X1.000000*%
%ADD17R,1.700000X4.550000*%
G04 APERTURE END LIST*
D10*
X56500000Y-168500000D03*
D11*
X68500000Y-102000000D03*
X69516000Y-102000000D03*
D12*
X64238000Y-117000000D03*
X65762000Y-117000000D03*
D13*
X98810000Y-121000000D03*
X96270000Y-121000000D03*
X93730000Y-121000000D03*
X91190000Y-121000000D03*
X98810000Y-130000000D03*
X93730000Y-130000000D03*
X91190000Y-130000000D03*
D11*
X143002000Y-114427000D03*
X144018000Y-114427000D03*
D14*
X103500000Y-134055000D03*
X108500000Y-134055000D03*
D11*
X66992000Y-117000000D03*
X68008000Y-117000000D03*
D15*
X124730000Y-130445000D03*
X127270000Y-130445000D03*
X127270000Y-121555000D03*
X124730000Y-121555000D03*
D13*
X75810000Y-121000000D03*
X73270000Y-121000000D03*
X70730000Y-121000000D03*
X68190000Y-121000000D03*
X75810000Y-130000000D03*
X70730000Y-130000000D03*
X68190000Y-130000000D03*
D11*
X144018000Y-116332000D03*
X143002000Y-116332000D03*
X137000000Y-117000000D03*
X138016000Y-117000000D03*
D12*
X134238000Y-117000000D03*
X135762000Y-117000000D03*
D13*
X87310000Y-121000000D03*
X84770000Y-121000000D03*
X82230000Y-121000000D03*
X79690000Y-121000000D03*
X87310000Y-130000000D03*
X82230000Y-130000000D03*
X79690000Y-130000000D03*
X64310000Y-121000000D03*
X61770000Y-121000000D03*
X59230000Y-121000000D03*
X56690000Y-121000000D03*
X64310000Y-130000000D03*
X59230000Y-130000000D03*
X56690000Y-130000000D03*
D11*
X143002000Y-120015000D03*
X144018000Y-120015000D03*
X68492000Y-106000000D03*
X69508000Y-106000000D03*
D14*
X123500000Y-134000000D03*
X128500000Y-134000000D03*
D16*
X72107440Y-117949960D03*
X72107440Y-116047500D03*
X69897640Y-117002540D03*
D14*
X133500000Y-134000000D03*
X138500000Y-134000000D03*
D15*
X104730000Y-130445000D03*
X107270000Y-130445000D03*
X107270000Y-121555000D03*
X104730000Y-121555000D03*
D14*
X113500000Y-134000000D03*
X118500000Y-134000000D03*
D16*
X92107440Y-117949960D03*
X92107440Y-116047500D03*
X89897640Y-117002540D03*
D11*
X106992000Y-117000000D03*
X108008000Y-117000000D03*
X143002000Y-118110000D03*
X144018000Y-118110000D03*
D12*
X124238000Y-117000000D03*
X125762000Y-117000000D03*
D16*
X62107440Y-117949960D03*
X62107440Y-116047500D03*
X59897640Y-117002540D03*
D12*
X65762000Y-102000000D03*
X64238000Y-102000000D03*
D16*
X82107440Y-117949960D03*
X82107440Y-116047500D03*
X79897640Y-117002540D03*
D12*
X104238000Y-117000000D03*
X105762000Y-117000000D03*
X114238000Y-117000000D03*
X115762000Y-117000000D03*
X94238000Y-117000000D03*
X95762000Y-117000000D03*
D11*
X144018000Y-121793000D03*
X143002000Y-121793000D03*
D15*
X114730000Y-130445000D03*
X117270000Y-130445000D03*
X117270000Y-121555000D03*
X114730000Y-121555000D03*
D12*
X74238000Y-117000000D03*
X75762000Y-117000000D03*
X65762000Y-106000000D03*
X64238000Y-106000000D03*
D11*
X86992000Y-117000000D03*
X88008000Y-117000000D03*
X126992000Y-117000000D03*
X128008000Y-117000000D03*
D17*
X141820000Y-109125000D03*
X141820000Y-102875000D03*
X139280000Y-109125000D03*
X139280000Y-102875000D03*
X136740000Y-109125000D03*
X136740000Y-102875000D03*
X134200000Y-109125000D03*
X134200000Y-102875000D03*
X131660000Y-109125000D03*
X131660000Y-102875000D03*
X129120000Y-109125000D03*
X129120000Y-102875000D03*
X126580000Y-109125000D03*
X126580000Y-102875000D03*
X124040000Y-109125000D03*
X124040000Y-102875000D03*
X121500000Y-109125000D03*
X121500000Y-102875000D03*
X118960000Y-109125000D03*
X118960000Y-102875000D03*
X116420000Y-109125000D03*
X116420000Y-102875000D03*
X113880000Y-109125000D03*
X113880000Y-102875000D03*
X111340000Y-109125000D03*
X111340000Y-102875000D03*
X108800000Y-109125000D03*
X108800000Y-102875000D03*
X106260000Y-109125000D03*
X106260000Y-102875000D03*
X103720000Y-109125000D03*
X103720000Y-102875000D03*
X101180000Y-109125000D03*
X101180000Y-102875000D03*
D15*
X134730000Y-130445000D03*
X137270000Y-130445000D03*
X137270000Y-121555000D03*
X134730000Y-121555000D03*
D11*
X76992000Y-117000000D03*
X78008000Y-117000000D03*
X143002000Y-112522000D03*
X144018000Y-112522000D03*
X96992000Y-117000000D03*
X98008000Y-117000000D03*
X116992000Y-117000000D03*
X118008000Y-117000000D03*
D12*
X84238000Y-117000000D03*
X85762000Y-117000000D03*
M02*
