G04 #@! TF.GenerationSoftware,KiCad,Pcbnew,7.0.5-4d25ed1034~172~ubuntu22.04.1*
G04 #@! TF.CreationDate,2023-06-14T16:15:45+03:00*
G04 #@! TF.ProjectId,AgonLight2-HvIO_Rev_A,41676f6e-4c69-4676-9874-322d4876494f,A*
G04 #@! TF.SameCoordinates,Original*
G04 #@! TF.FileFunction,Soldermask,Bot*
G04 #@! TF.FilePolarity,Negative*
%FSLAX46Y46*%
G04 Gerber Fmt 4.6, Leading zero omitted, Abs format (unit mm)*
G04 Created by KiCad (PCBNEW 7.0.5-4d25ed1034~172~ubuntu22.04.1) date 2023-06-14 16:15:45*
%MOMM*%
%LPD*%
G01*
G04 APERTURE LIST*
G04 Aperture macros list*
%AMRoundRect*
0 Rectangle with rounded corners*
0 $1 Rounding radius*
0 $2 $3 $4 $5 $6 $7 $8 $9 X,Y pos of 4 corners*
0 Add a 4 corners polygon primitive as box body*
4,1,4,$2,$3,$4,$5,$6,$7,$8,$9,$2,$3,0*
0 Add four circle primitives for the rounded corners*
1,1,$1+$1,$2,$3*
1,1,$1+$1,$4,$5*
1,1,$1+$1,$6,$7*
1,1,$1+$1,$8,$9*
0 Add four rect primitives between the rounded corners*
20,1,$1+$1,$2,$3,$4,$5,0*
20,1,$1+$1,$4,$5,$6,$7,0*
20,1,$1+$1,$6,$7,$8,$9,0*
20,1,$1+$1,$8,$9,$2,$3,0*%
G04 Aperture macros list end*
%ADD10RoundRect,0.050800X-1.524000X-1.524000X1.524000X-1.524000X1.524000X1.524000X-1.524000X1.524000X0*%
%ADD11C,3.149600*%
%ADD12C,3.401601*%
%ADD13C,2.101600*%
%ADD14C,1.701600*%
%ADD15C,2.641600*%
%ADD16C,3.101600*%
%ADD17C,1.301600*%
G04 APERTURE END LIST*
D10*
X102500000Y-165500000D03*
D11*
X107500000Y-165500000D03*
D12*
X59000000Y-166000000D03*
D13*
X106000000Y-138380000D03*
X106000000Y-153620000D03*
D12*
X151000000Y-104000000D03*
D10*
X138500000Y-165500000D03*
D11*
X143500000Y-165500000D03*
D10*
X66500000Y-165500000D03*
D11*
X71500000Y-165500000D03*
D14*
X101000000Y-159000000D03*
X101000000Y-149000000D03*
D13*
X116000000Y-138380000D03*
X116000000Y-153620000D03*
D10*
X84500000Y-165500000D03*
D11*
X89500000Y-165500000D03*
D15*
X150500000Y-126500000D03*
X150500000Y-130000000D03*
X150500000Y-133500000D03*
D10*
X120500000Y-165500000D03*
D11*
X125500000Y-165500000D03*
D14*
X131000000Y-159000000D03*
X131000000Y-149000000D03*
D12*
X151000000Y-166000000D03*
X59000000Y-104000000D03*
D16*
X94000000Y-138300000D03*
X94000000Y-152700000D03*
D14*
X121000000Y-159000000D03*
X121000000Y-149000000D03*
D16*
X83000000Y-138300000D03*
X83000000Y-152700000D03*
X61000000Y-138300000D03*
X61000000Y-152700000D03*
D15*
X150500000Y-114000000D03*
X150500000Y-117500000D03*
X150500000Y-121000000D03*
D16*
X72000000Y-138300000D03*
X72000000Y-152700000D03*
D13*
X136000000Y-138380000D03*
X136000000Y-153620000D03*
X126000000Y-138380000D03*
X126000000Y-153620000D03*
D17*
X140550000Y-106000000D03*
X102450000Y-106000000D03*
D14*
X111000000Y-159000000D03*
X111000000Y-149000000D03*
M02*
